<?xml version="1.0" encoding="UTF-8" standalone="no"?>
<!-- Created with Inkscape (http://www.inkscape.org/) -->
<svg
   xmlns:dc="http://purl.org/dc/elements/1.1/"
   xmlns:cc="http://creativecommons.org/ns#"
   xmlns:rdf="http://www.w3.org/1999/02/22-rdf-syntax-ns#"
   xmlns:svg="http://www.w3.org/2000/svg"
   xmlns="http://www.w3.org/2000/svg"
   xmlns:sodipodi="http://sodipodi.sourceforge.net/DTD/sodipodi-0.dtd"
   xmlns:inkscape="http://www.inkscape.org/namespaces/inkscape"
   width="800px"
   height="600px"
   id="svg2415"
   sodipodi:version="0.32"
   inkscape:version="0.46"
   sodipodi:docname="drawing.svg"
   inkscape:output_extension="org.inkscape.output.svg.inkscape">
  <defs
     id="defs2417">
    <inkscape:perspective
       sodipodi:type="inkscape:persp3d"
       inkscape:vp_x="0 : 300 : 1"
       inkscape:vp_y="0 : 1000 : 0"
       inkscape:vp_z="800 : 300 : 1"
       inkscape:persp3d-origin="400 : 200 : 1"
       id="perspective2423" />
  </defs>
  <sodipodi:namedview
     id="base"
     pagecolor="#ffffff"
     bordercolor="#666666"
     borderopacity="1.0"
     inkscape:pageopacity="0.0"
     inkscape:pageshadow="2"
     inkscape:zoom="0.6"
     inkscape:cx="347.32398"
     inkscape:cy="368.89172"
     inkscape:current-layer="layer1"
     inkscape:document-units="px"
     showgrid="false"
     inkscape:window-width="1024"
     inkscape:window-height="699"
     inkscape:window-x="0"
     inkscape:window-y="24" />
  <metadata
     id="metadata2420">
    <rdf:RDF>
      <cc:Work
         rdf:about="">
        <dc:format>image/svg+xml</dc:format>
        <dc:type
           rdf:resource="http://purl.org/dc/dcmitype/StillImage" />
      </cc:Work>
    </rdf:RDF>
  </metadata>
  <g
     id="layer1"
     inkscape:label="Layer 1"
     inkscape:groupmode="layer">
    <rect
       style="opacity:1;fill:#000000;fill-opacity:1;stroke:none;stroke-width:10;stroke-linecap:round;stroke-linejoin:round;stroke-miterlimit:4;stroke-dasharray:none;stroke-opacity:1"
       id="rect3185"
       width="1121.3999"
       height="841.05042"
       x="1189.6947"
       y="-363.79712"
       rx="29.683723"
       ry="24.910666"
       inkscape:export-xdpi="90"
       inkscape:export-ydpi="90" />
    <g
       id="g3212"
       transform="translate(614.0289,292.37789)">
      <rect
         ry="11.355391"
         rx="9.9846754"
         y="67.304733"
         x="552.0766"
         height="652.12384"
         width="422.20914"
         id="rect2402"
         style="fill:#ffffff;fill-opacity:1;stroke:#ff5300;stroke-width:10.64799976;stroke-linecap:round;stroke-linejoin:round;stroke-miterlimit:4;stroke-dasharray:none;stroke-opacity:1" />
      <rect
         inkscape:export-ydpi="90"
         inkscape:export-xdpi="90"
         ry="10.493424"
         rx="9.2267666"
         y="92.055191"
         x="568.10101"
         height="602.62292"
         width="390.16025"
         id="rect2404"
         style="fill:#000000;fill-opacity:1;stroke:#ffcb00;stroke-width:9.83974171;stroke-linecap:round;stroke-linejoin:round;stroke-miterlimit:4;stroke-dasharray:none;stroke-opacity:1" />
    </g>
    <g
       id="g2440"
       transform="matrix(0.8266449,0,0,0.8266449,113.64821,65.616351)">
      <rect
         ry="11.355391"
         rx="9.9846754"
         y="-42.631451"
         x="-114.88519"
         height="652.12384"
         width="422.20914"
         id="rect2383"
         style="fill:#000000;fill-opacity:1;stroke:#ff5300;stroke-width:10;stroke-linecap:round;stroke-linejoin:round;stroke-miterlimit:4;stroke-dasharray:none;stroke-opacity:1" />
      <rect
         ry="10.815266"
         rx="9.2245436"
         y="-25.677275"
         x="-98.81356"
         height="621.10565"
         width="390.06604"
         id="rect3163"
         style="fill:#000000;fill-opacity:1;stroke:#ffcb00;stroke-width:6.34435701;stroke-linecap:round;stroke-linejoin:round;stroke-miterlimit:4;stroke-dasharray:none;stroke-opacity:1" />
      <rect
         ry="3.8312924"
         rx="10.047451"
         y="389.67795"
         x="382.78473"
         height="220.02565"
         width="424.86365"
         id="rect3180"
         style="fill:#000000;fill-opacity:1;stroke:#ff5300;stroke-width:10;stroke-linecap:butt;stroke-linejoin:round;stroke-miterlimit:4;stroke-dasharray:none;stroke-dashoffset:0;stroke-opacity:1" />
      <rect
         ry="3.296819"
         rx="9.4059191"
         y="406.44775"
         x="397.13141"
         height="189.33174"
         width="397.73584"
         id="rect3182"
         style="fill:#000000;fill-opacity:1;stroke:#ffcb00;stroke-width:6.3058362;stroke-linecap:round;stroke-linejoin:round;stroke-miterlimit:4;stroke-dasharray:none;stroke-opacity:1" />
      <rect
         ry="6.8554673"
         rx="10.060122"
         y="-42.552044"
         x="382.48981"
         height="393.69986"
         width="425.39941"
         id="rect3186"
         style="fill:#000000;fill-opacity:1;stroke:#ff5300;stroke-width:9.60161877;stroke-linecap:round;stroke-linejoin:round;stroke-miterlimit:4;stroke-dasharray:none;stroke-opacity:1" />
      <rect
         ry="6.2832885"
         rx="9.4141769"
         y="-26.122435"
         x="396.9657"
         height="360.84064"
         width="398.08499"
         id="rect3188"
         style="fill:none;fill-opacity:1;stroke:#ffcb00;stroke-width:6.84245729;stroke-linecap:round;stroke-linejoin:round;stroke-miterlimit:4;stroke-dasharray:none;stroke-opacity:1" />
    </g>
    <g
       id="g2797"
       transform="translate(337.51816,380.84525)"
       style="fill:#2a2aff;fill-opacity:1">
      <path
         style="fill:#2a2aff;fill-opacity:1"
         d="M 74.66667,575.15184 C 68.34167,570.77401 61.36667,566.26957 59.16667,565.14197 C 56.96667,564.01438 51.0367,560.55864 45.98897,557.46256 C 37.75515,552.41228 36.75176,551.47337 36.23269,548.33333 C 35.11569,541.5762 33.77077,518.53875 32.7007,487.83333 C 32.10652,470.78333 30.89545,448.57474 30.00944,438.48092 C 27.08093,405.11811 29.93182,393.85487 42.9517,387.34876 C 48.56702,384.54275 49.75087,384.33333 59.99765,384.33333 C 68.02476,384.33333 71.43707,384.71322 72.58793,385.73499 C 74.8619,387.7539 113.54702,392.39013 115.92013,390.92816 C 117.17959,390.15225 118.16563,390.15766 119.42013,390.94736 C 120.98493,391.93239 121.22738,394.79318 121.75011,418.44006 C 122.42214,448.8409 122.89947,451.02768 132.04191,465.5899 L 137.24284,473.87402 L 135.94138,478.35368 C 133.98659,485.08212 132.74802,501.84064 132.01058,531.53971 L 131.34745,558.24609 L 125.75706,561.66047 C 110.37364,571.05601 88.58352,583.32061 87.4486,583.22244 C 86.74354,583.16145 80.99167,579.52968 74.66667,575.15184 z M 87.19452,535.4212 C 86.52182,500.79954 86.61292,496.90725 88.24415,490.57499 C 90.01805,483.68891 90.01556,483.61735 87.88453,480.23712 C 84.39543,474.70271 79.78166,465.6991 77.60519,460.17734 C 73.27396,449.18893 72.36889,441.94065 71.75592,413.33333 L 71.16667,385.83333 L 60.66667,385.87515 C 51.89208,385.91011 49.30277,386.30059 44.90939,388.25143 C 38.85594,390.93941 34.41898,395.52377 32.63285,400.9358 C 30.95351,406.02426 30.9013,424.01376 32.46627,458.33333 C 33.77114,486.9489 34.68957,497.89771 35.42318,493.58333 C 35.63361,492.34583 36.23305,491.33333 36.75527,491.33333 C 37.2775,491.33333 37.46672,492.34583 37.17577,493.58333 C 36.49151,496.4937 38.26618,499.45381 39.52554,497.50267 C 40.13485,496.55865 40.57069,497.10346 41.02554,499.37767 C 41.93574,503.92866 41.65753,507.77203 40.70301,503.83333 L 39.97598,500.83333 L 38.98405,503.25959 C 37.99943,505.66797 37.98792,505.66981 37.42265,503.50821 C 37.06544,502.14222 37.2395,501.56932 37.88966,501.97115 C 38.50126,502.34914 38.66826,502.04226 38.29705,501.22253 C 37.95105,500.45847 37.39018,499.04583 37.05068,498.08333 C 36.03248,495.19669 34.62807,496.10534 34.73228,499.58333 C 35.07011,510.85891 36.01302,519.23731 36.8836,518.69926 C 37.52537,518.30262 37.52831,518.74085 36.89207,519.96265 C 36.3533,520.99727 36.2773,522.72719 36.72202,523.83333 C 37.16426,524.93333 37.55773,527.07083 37.59638,528.58333 C 37.64034,530.30308 38.21687,531.33333 39.13528,531.33333 C 40.11042,531.33333 40.38946,530.74529 39.96572,529.58333 C 39.36635,527.93975 39.44427,527.93542 41.2471,529.51207 C 42.30287,530.43538 43.61667,531.24923 44.16667,531.32063 C 44.71667,531.39203 45.10417,532.0991 45.02778,532.89189 C 44.86891,534.54076 46.24492,534.82476 47.16667,533.33333 C 48.67097,530.89932 51.84268,532.39876 53.49093,536.32316 C 55.09647,540.14584 56.91194,541.36353 58.11162,539.4224 C 58.42127,538.92138 59.46033,538.63057 60.42064,538.77616 C 61.80122,538.98545 62.17554,540.06564 62.20904,543.93709 C 62.24159,547.69793 62.58943,548.75603 63.70904,548.5 C 65.77768,548.02694 65.91885,548.03712 68.40542,548.83887 C 69.63674,549.23588 70.4169,549.92846 70.13911,550.37792 C 69.86133,550.82739 70.09139,551.47779 70.65036,551.82325 C 71.20933,552.16871 71.66667,552.97493 71.66667,553.61485 C 71.66667,554.25477 70.96615,553.77821 70.10997,552.55584 C 68.24895,549.89886 65.66667,549.62975 65.66667,552.09278 C 65.66667,554.39046 69.26271,556.59632 71.7312,555.81285 C 73.15535,555.36084 73.52018,554.59786 73.10437,552.94111 C 72.75235,551.53856 73.12995,550.19373 74.10238,549.38668 C 75.41978,548.29334 75.66667,548.36383 75.66667,549.83333 C 75.66667,551.27096 75.93081,551.35901 77.16667,550.33333 C 78.41716,549.29552 78.66667,549.42992 78.66667,551.14133 C 78.66667,552.48773 77.89234,553.3288 76.41667,553.58526 C 74.25212,553.96143 74.27111,554.0201 76.91667,555.13006 C 79.71204,556.30286 80.20265,558.10203 78.74455,561.83333 C 78.116,563.44182 78.52127,564.06858 80.81484,565.03506 C 82.38335,565.69601 83.66667,566.95247 83.66667,567.82721 C 83.66667,569.15331 82.96033,569.0179 79.41667,567.01247 C 77.07917,565.68963 67.74167,560.41902 58.66667,555.3 C 37.33224,543.26569 36.99778,543.05629 38.37612,542.59685 C 39.01885,542.3826 40.69715,542.96242 42.10569,543.88533 C 43.51423,544.80824 44.66667,545.15862 44.66667,544.66395 C 44.66667,543.63283 39.40629,540.33333 37.76238,540.33333 C 37.15974,540.33333 36.66667,541.45075 36.66667,542.81648 C 36.66667,544.80937 37.70322,545.82206 41.91667,547.94563 C 44.80417,549.40093 51.66667,553.18075 57.16667,556.34524 C 69.0436,563.17876 84.16862,571.33333 84.96644,571.33333 C 85.2785,571.33333 85.72961,570.32083 85.96889,569.08333 C 86.20818,567.84583 86.26636,568.29583 86.09819,570.08333 C 85.9259,571.9145 86.25926,573.33333 86.86178,573.33333 C 87.61508,573.33333 87.71343,562.12801 87.19452,535.4212 z M 80.96946,563.54162 C 80.27249,563.09855 80.11006,562.23395 80.58072,561.4724 C 81.18002,560.50271 81.53023,560.70359 81.93431,562.2488 C 82.23413,563.39529 82.40906,564.32644 82.32305,564.31802 C 82.23704,564.3096 81.62792,563.96022 80.96946,563.54162 z M 63.72053,545.23268 C 64.32561,544.10208 64.56618,542.51384 64.25513,541.70325 C 63.93728,540.87494 64.12254,540.49704 64.67812,540.84041 C 66.22462,541.7962 65.8364,546.05422 64.14353,546.70384 C 62.88574,547.1865 62.81205,546.93021 63.72053,545.23268 z M 69.66667,546.39235 C 69.66667,545.80989 70.11667,545.33333 70.66667,545.33333 C 71.21667,545.33333 71.66667,545.53177 71.66667,545.77431 C 71.66667,546.01685 71.21667,546.49341 70.66667,546.83333 C 70.11667,547.17325 69.66667,546.97481 69.66667,546.39235 z M 73.66667,545.33333 C 73.66667,544.78333 74.11667,544.33333 74.66667,544.33333 C 75.21667,544.33333 75.66667,544.78333 75.66667,545.33333 C 75.66667,545.88333 75.21667,546.33333 74.66667,546.33333 C 74.11667,546.33333 73.66667,545.88333 73.66667,545.33333 z M 68.1078,533.77816 C 66.27749,532.31179 66.3094,532.29097 68.66667,533.41362 C 71.7277,534.87143 72.29501,535.33333 71.02447,535.33333 C 70.48792,535.33333 69.17542,534.63351 68.1078,533.77816 z M 74.66667,533.75618 L 72.16667,532.2499 L 74.66667,532.90401 C 76.04167,533.26377 77.59417,533.95754 78.11667,534.44572 C 79.64413,535.87286 77.45288,535.4349 74.66667,533.75618 z M 79.82456,532.33333 C 79.82456,530.95833 80.05154,530.39583 80.32895,531.08333 C 80.60636,531.77083 80.60636,532.89583 80.32895,533.58333 C 80.05154,534.27083 79.82456,533.70833 79.82456,532.33333 z M 57.16667,528.81765 C 50.43124,525.59568 45.1258,524.04505 48.66667,526.33333 C 50.97253,527.82349 48.49157,527.443 45.66667,525.87324 L 43.16667,524.48402 L 46.06423,523.37732 C 48.56709,522.42138 50.02926,522.73116 56.79809,525.65146 C 61.10805,527.51091 64.31718,529.34949 63.92948,529.73718 C 63.54179,530.12487 63.88656,530.86072 64.69563,531.37239 C 67.85489,533.37036 63.82647,532.00343 57.16667,528.81765 z M 55.66667,530.33333 C 54.84167,529.80017 54.61667,529.36396 55.16667,529.36396 C 55.71667,529.36396 56.84167,529.80017 57.66667,530.33333 C 58.49167,530.86649 58.71667,531.3027 58.16667,531.3027 C 57.61667,531.3027 56.49167,530.86649 55.66667,530.33333 z M 39.53911,525.58333 C 38.2696,523.96457 38.31666,523.94335 40.16667,525.30036 C 41.26667,526.10723 42.35417,526.89473 42.58334,527.05036 C 42.8125,527.20599 42.5301,527.33333 41.95578,527.33333 C 41.38146,527.33333 40.29396,526.54583 39.53911,525.58333 z M 41.47709,523.81042 C 40.60656,522.93988 41.64161,510.22407 42.73691,508.33333 C 43.31005,507.34396 43.6162,508.64062 43.63626,512.14235 C 43.66898,517.85501 45.57735,518.63857 45.78429,513.02431 C 45.87556,510.54808 46.08696,510.93905 46.72806,514.7698 C 47.6554,520.31081 47.15662,521.98484 45.08947,520.26926 C 43.66573,519.08766 43.51245,519.25631 42.47506,523.14583 C 42.28253,523.86771 41.83344,524.16677 41.47709,523.81042 z M 65.43072,517.43025 C 65.79445,514.46641 65.62493,513.24109 64.91213,513.68163 C 64.24503,514.09392 64.05069,513.58084 64.38693,512.29505 C 64.68049,511.17247 65.15962,510.49295 65.45166,510.78499 C 65.74371,511.07703 66.66023,510.75738 67.48838,510.07465 C 68.78821,509.00307 68.84383,509.11548 67.89511,510.89666 C 67.06209,512.46063 67.13398,513.5497 68.19217,515.39666 C 70.68516,519.74791 70.92376,520.40957 70.24473,521.0886 C 69.87677,521.45656 68.72827,521.22838 67.6925,520.58154 C 66.23895,519.67378 65.70447,519.68242 65.34983,520.61939 C 65.09713,521.28706 65.13353,519.85194 65.43072,517.43025 z M 71.74562,519.91666 C 71.7022,518.8625 71.93854,518.27187 72.27084,518.60416 C 72.60313,518.93646 72.63866,519.79895 72.34978,520.52083 C 72.03056,521.31856 71.7936,521.08161 71.74562,519.91666 z M 55.41667,517.5 C 57.46573,515.35336 57.95837,515.40958 57.08322,517.6902 C 56.73643,518.59392 55.82584,519.33333 55.05968,519.33333 C 53.99881,519.33333 54.08393,518.8962 55.41667,517.5 z M 49.91667,517.61505 C 48.14601,516.9799 48.35893,513.33333 50.16667,513.33333 C 50.99167,513.33333 51.7022,512.77083 51.74562,512.08333 C 51.80878,511.08333 51.92544,511.08333 52.32895,512.08333 C 53.18884,514.21437 54.51298,513.46352 54.97421,510.58333 C 55.29833,508.55937 55.39582,508.79512 55.34346,511.47628 C 55.2934,514.03936 54.88612,514.97104 53.96949,514.61929 C 53.24484,514.34122 52.66667,514.80632 52.66667,515.66732 C 52.66667,517.5057 51.63965,518.2331 49.91667,517.61505 z M 80.66667,517.89235 C 80.66667,517.64981 81.11667,517.17325 81.66667,516.83333 C 82.21667,516.49341 82.66667,516.69185 82.66667,517.27431 C 82.66667,517.85677 82.21667,518.33333 81.66667,518.33333 C 81.11667,518.33333 80.66667,518.13489 80.66667,517.89235 z M 57.91885,508.83333 C 57.90775,506.63333 58.10346,505.61558 58.35375,506.57167 C 58.60404,507.52776 58.61312,509.32776 58.37393,510.57167 C 58.13474,511.81558 57.92995,511.03333 57.91885,508.83333 z M 78.33334,511.66666 C 77.96667,511.3 77.66667,510.1199 77.66667,509.04422 C 77.66667,507.33197 77.44876,507.25719 75.91667,508.44365 C 74.50009,509.54066 74.53067,509.3723 76.07721,507.55997 C 77.128,506.32857 78.21296,505.54629 78.48823,505.82155 C 78.87792,506.21125 79.43744,512.33372 79.08334,512.3334 C 79.0375,512.33336 78.7,512.03333 78.33334,511.66666 z M 81.24962,511.46754 C 80.81885,510.77054 80.73646,509.93021 81.06653,509.60013 C 81.9615,508.70517 82.9373,510.02143 82.45392,511.47158 C 82.1152,512.48775 81.87965,512.48696 81.24962,511.46754 z M 51.19868,509.08333 C 50.97581,508.39583 50.64576,505.97556 50.46524,503.70496 C 50.22614,500.69762 50.47925,499.70792 51.39735,500.06022 C 52.21698,500.37474 52.58321,502.25542 52.44471,505.43859 C 52.22784,510.42294 51.92249,511.3161 51.19868,509.08333 z M 61.23096,501.0402 C 61.60649,500.05398 62.16566,499.49898 62.47354,499.80687 C 62.78143,500.11476 62.47418,500.92166 61.79076,501.6 C 60.80314,502.58026 60.68828,502.4654 61.23096,501.0402 z M 58.04096,499.86632 C 57.73134,499.05946 57.67099,497.82196 57.90686,497.11632 C 58.14273,496.41068 58.57278,497.07083 58.86252,498.58333 C 59.42826,501.53655 58.96156,502.26537 58.04096,499.86632 z M 46.00351,499.66316 C 46.37211,499.29456 45.94964,497.88795 45.0647,496.53736 C 43.79979,494.60687 43.72619,493.91458 44.72051,493.30006 C 45.41615,492.87013 46.66673,492.77986 47.49959,493.09946 C 48.60094,493.52208 48.83875,493.22415 48.37166,492.00694 C 47.96166,490.93848 48.23034,490.33333 49.11472,490.33333 C 49.87663,490.33333 50.7009,489.77083 50.94643,489.08333 C 51.2061,488.35626 51.76389,488.20436 52.27976,488.72023 C 52.79564,489.23611 52.64374,489.7939 51.91667,490.05357 C 50.36023,490.60944 50.26371,495.96625 51.79311,496.91147 C 52.46837,497.32881 51.62131,498.15351 49.6783,498.97049 C 46.10694,500.47213 44.98261,500.68406 46.00351,499.66316 z M 54.89867,496.33333 C 54.89867,494.40833 55.10447,493.62083 55.356,494.58333 C 55.60752,495.54583 55.60752,497.12083 55.356,498.08333 C 55.10447,499.04583 54.89867,498.25833 54.89867,496.33333 z M 61.66667,496.40893 C 61.66667,495.93504 62.34167,495.28829 63.16667,494.9717 C 63.99167,494.65512 64.66667,494.78383 64.66667,495.25773 C 64.66667,495.73162 63.99167,496.37837 63.16667,496.69496 C 62.34167,497.01154 61.66667,496.88283 61.66667,496.40893 z M 38.16667,493.33333 C 38.50659,492.78333 39.2347,492.33333 39.7847,492.33333 C 40.3347,492.33333 40.50659,492.78333 40.16667,493.33333 C 39.82675,493.88333 39.09864,494.33333 38.54864,494.33333 C 37.99864,494.33333 37.82675,493.88333 38.16667,493.33333 z M 57.66667,492.83333 C 57.66667,492.00833 58.10255,491.33333 58.63528,491.33333 C 59.16802,491.33333 59.34488,492.00833 59.0283,492.83333 C 58.71171,493.65833 58.27584,494.33333 58.05968,494.33333 C 57.84352,494.33333 57.66667,493.65833 57.66667,492.83333 z M 80.43285,488.67219 C 81.95015,485.46827 82.20777,485.29003 82.49575,487.24492 C 82.94529,490.29648 82.03202,492.33333 80.21423,492.33333 C 78.90043,492.33333 78.92949,491.84668 80.43285,488.67219 z M 70.75445,489.9391 C 69.88456,488.89095 69.95634,488.43615 71.05839,488.01326 C 71.85191,487.70875 72.74374,488.09179 73.04024,488.86445 C 73.79185,490.82312 72.13472,491.60222 70.75445,489.9391 z M 76.12555,489.2668 C 75.76302,488.68021 75.68087,487.9858 75.943,487.72367 C 76.20512,487.46154 76.68606,487.94148 77.01175,488.7902 C 77.68793,490.55231 77.1116,490.86226 76.12555,489.2668 z M 65.66667,487.83333 C 65.66667,487.00833 66.10255,486.33333 66.63528,486.33333 C 67.16802,486.33333 67.34488,487.00833 67.0283,487.83333 C 66.71171,488.65833 66.27584,489.33333 66.05968,489.33333 C 65.84352,489.33333 65.66667,488.65833 65.66667,487.83333 z M 44.30229,485.15714 C 40.99242,481.77332 41.20667,480.32448 44.55556,483.44444 C 47.90409,486.56407 48.31752,484.91523 45.32183,480.38843 C 43.5404,477.69651 43.18215,476.59391 44.21809,476.99143 C 45.06166,477.31515 46.6327,479.30657 47.70927,481.41683 C 49.87695,485.66584 50.12423,486.73415 48.74235,485.8801 C 48.23398,485.56591 47.67148,485.93359 47.49235,486.69718 C 47.26641,487.66034 46.28947,487.18871 44.30229,485.15714 z M 52.21124,487.08333 C 49.61815,478.82843 49.49852,478.10148 50.55873,477.04127 C 51.36932,476.23068 51.66667,476.28411 51.66667,477.24032 C 51.66667,478.01551 52.30361,478.30289 53.23206,477.94661 C 54.45545,477.47715 54.65052,477.80885 54.12493,479.46485 C 53.70861,480.77655 53.83426,481.34779 54.45475,480.9643 C 56.07817,479.96097 56.64616,482.97453 55.35717,485.75225 C 54.06496,488.53691 52.83176,489.05869 52.21124,487.08333 z M 54.66667,484.33333 C 54.66667,483.78333 54.21667,483.33333 53.66667,483.33333 C 53.11667,483.33333 52.66667,483.78333 52.66667,484.33333 C 52.66667,484.88333 53.11667,485.33333 53.66667,485.33333 C 54.21667,485.33333 54.66667,484.88333 54.66667,484.33333 z M 38.74562,483.91666 C 38.7022,482.8625 38.93854,482.27187 39.27084,482.60416 C 39.60313,482.93645 39.63865,483.79896 39.34978,484.52083 C 39.03056,485.31856 38.7936,485.08161 38.74562,483.91666 z M 64.68198,482.08333 C 64.69436,480.26389 64.8828,480.12037 65.66667,481.33333 C 66.91959,483.27209 66.91959,484.33333 65.66667,484.33333 C 65.11667,484.33333 64.67356,483.32083 64.68198,482.08333 z M 76.66667,481.33333 C 76.66667,480.78333 76.86511,480.33333 77.10765,480.33333 C 77.35019,480.33333 77.82675,480.78333 78.16667,481.33333 C 78.50659,481.88333 78.30815,482.33333 77.72569,482.33333 C 77.14323,482.33333 76.66667,481.88333 76.66667,481.33333 z M 59.09367,478.8548 C 58.03382,478.05298 57.61667,477.38952 58.16667,477.38045 C 59.65261,477.35594 62.1924,479.14093 61.56471,479.76863 C 61.26549,480.06785 60.15352,479.65663 59.09367,478.8548 z M 61.66667,476.69113 C 61.66667,476.15458 62.3665,474.84208 63.22184,473.77446 C 64.68821,471.94415 64.70903,471.97606 63.58638,474.33333 C 62.12857,477.39436 61.66667,477.96167 61.66667,476.69113 z M 59.4,474.20924 C 60.07834,473.52582 60.88524,473.21857 61.19313,473.52646 C 61.50102,473.83434 60.94602,474.39351 59.9598,474.76904 C 58.5346,475.31172 58.41974,475.19686 59.4,474.20924 z M 63.30504,469.83333 C 63.62163,469.00833 64.53965,468.33333 65.34509,468.33333 C 66.6152,468.33333 66.61048,468.53237 65.30953,469.83333 C 64.48453,470.65833 63.56651,471.33333 63.26948,471.33333 C 62.97246,471.33333 62.98846,470.65833 63.30504,469.83333 z M 33.74562,426.91666 C 33.7022,425.8625 33.93854,425.27187 34.27084,425.60416 C 34.60313,425.93645 34.63865,426.79896 34.34978,427.52083 C 34.03056,428.31856 33.7936,428.08161 33.74562,426.91666 z M 92.56665,563.98457 C 91.88815,561.61879 92.02933,560.70988 93.17486,560.06881 C 93.99536,559.60964 94.66667,558.417 94.66667,557.4185 C 94.66667,556.42 95.62599,554.38347 96.7985,552.89287 C 98.38507,550.87587 99.51487,550.3294 101.21574,550.75629 C 102.5936,551.10211 103.6782,550.83419 103.94701,550.08161 C 104.19223,549.39506 104.77164,549.188 105.2346,549.6215 C 105.69755,550.05499 105.48476,551.85499 104.76173,553.6215 C 104.0387,555.388 102.94182,558.63333 102.32421,560.83333 C 101.7066,563.03333 100.75652,565.14636 100.21293,565.52896 C 99.66935,565.91155 99.5149,566.51489 99.86972,566.86971 C 100.48169,567.48168 106.28674,564.84535 113.41924,560.71628 C 117.3904,558.41733 118.45044,555.68837 116.23328,553.47182 C 114.80869,552.04762 114.4754,552.02572 113.68488,553.30437 C 113.18467,554.11344 112.44345,554.44344 112.03771,554.0377 C 111.63197,553.63196 111.8325,552.7675 112.48334,552.11666 C 113.13417,551.46583 113.66667,550.28544 113.66667,549.49357 C 113.66667,548.70171 114.30441,547.55421 115.08386,546.94357 C 115.86332,546.33294 117.17592,543.80833 118.00076,541.33333 C 119.45844,536.95944 119.43273,536.76174 117.08357,534.27861 C 115.75427,532.87352 114.66667,530.96102 114.66667,530.02861 C 114.66667,527.88339 113.59677,527.89255 109.80239,530.07022 C 107.01267,531.6713 105.06079,535.06078 106.246,536.24599 C 106.521,536.52099 106.97625,535.86549 107.25768,534.78933 C 107.73537,532.9626 112.51696,529.85029 113.43513,530.76845 C 114.40841,531.74173 112.38543,535.43938 111.14094,534.96183 C 110.40116,534.67795 109.63556,534.92665 109.43961,535.51451 C 109.24366,536.10236 107.8381,536.58333 106.31615,536.58333 C 104.50681,536.58333 103.01032,537.40542 101.99281,538.95833 C 100.57763,541.11817 100.58673,541.56238 102.09322,543.86158 C 103.90098,546.62057 103.45789,548.33333 100.93639,548.33333 C 100.04966,548.33333 98.50122,549.07807 97.49541,549.98832 C 95.7644,551.55486 95.66219,551.48806 95.58286,548.73832 C 95.52815,546.84182 95.07144,547.82332 94.2673,551.56556 C 93.58983,554.71829 92.79931,557.53403 92.51058,557.82276 C 92.22184,558.11149 91.67866,546.36323 91.30351,531.71551 C 90.39125,496.09703 90.06063,496.74359 111.6599,491.90696 C 125.77005,488.74733 126.49064,488.74013 127.63393,491.74722 C 128.1406,493.07986 128.38574,505.50982 128.18121,519.49722 L 127.81074,544.83333 L 129.0872,520.83333 C 129.78925,507.63333 130.69928,495.93333 131.1095,494.83333 C 131.70533,493.23558 131.63832,493.13502 130.77632,494.33333 C 129.88249,495.57588 129.69467,495.43586 129.68198,493.51759 C 129.65554,489.51926 127.8495,487.33333 124.57247,487.33333 C 122.81122,487.33333 121.80669,486.91578 122.16667,486.33333 C 123.08923,484.8406 121.56022,485.09004 104.66667,489.1883 L 89.16667,492.94849 L 89.26036,521.39091 C 89.31188,537.03424 89.8424,553.88333 90.43929,558.83333 C 91.03617,563.78333 91.5634,568.28333 91.61091,568.83333 C 91.65842,569.38333 92.09171,569.21056 92.57377,568.44941 C 93.07635,567.65585 93.07331,565.7512 92.56665,563.98457 z M 102.84323,562.65506 C 103.04041,561.63119 104.34357,560.62882 105.85163,560.34104 C 107.31492,560.0618 109.95096,558.54421 111.7095,556.96862 C 114.16013,554.77294 115.0968,554.41126 115.72022,555.41997 C 116.57134,556.79712 114.65878,558.25606 106.63843,562.34773 C 102.79345,564.3093 102.52039,564.33141 102.84323,562.65506 z M 104.87704,556.77096 C 105.65478,555.06401 106.5446,554.4772 107.76693,554.86515 C 109.16958,555.31033 109.59826,554.76316 109.84987,552.20653 C 110.13957,549.26272 112.66667,546.66321 112.66667,549.30901 C 112.66667,549.93731 112.17743,550.14899 111.57946,549.77943 C 110.86703,549.33913 110.60029,550.13748 110.80566,552.0954 C 111.17562,555.62244 108.83708,559.20654 107.52025,557.13066 C 106.98994,556.29466 106.69185,556.23978 106.68198,556.97634 C 106.67356,557.605 106.01116,558.3709 105.20998,558.67834 C 104.00161,559.14203 103.94485,558.81689 104.87704,556.77096 z M 113.68198,543.77446 C 113.70447,542.3922 115.48018,539.8135 116.03054,540.36386 C 116.29047,540.6238 115.86494,541.70928 115.08491,542.77603 C 114.30488,543.84279 113.67356,544.29208 113.68198,543.77446 z M 109.20938,541.40243 C 108.89294,540.89043 109.09139,540.18887 109.65036,539.84341 C 110.20933,539.49795 110.66667,539.91685 110.66667,540.77431 C 110.66667,542.53084 110.06661,542.78947 109.20938,541.40243 z M 103.66667,540.89235 C 103.66667,540.64981 104.11667,540.17325 104.66667,539.83333 C 105.21667,539.49341 105.66667,539.69185 105.66667,540.27431 C 105.66667,540.85677 105.21667,541.33333 104.66667,541.33333 C 104.11667,541.33333 103.66667,541.13489 103.66667,540.89235 z M 115.1419,488.37341 C 115.49544,487.80137 116.95815,487.33333 118.39235,487.33333 C 121.52693,487.33333 121.16429,487.81232 117.33288,488.73274 C 115.4742,489.17925 114.72028,489.0556 115.1419,488.37341 z M 76.93389,560.20055 C 75.64301,558.90967 72.66667,559.71905 72.66667,561.36096 C 72.66667,561.96068 73.08558,562.19247 73.59757,561.87604 C 74.10957,561.5596 74.83536,561.79726 75.21044,562.40415 C 75.70152,563.19874 76.19669,563.20331 76.97954,562.42046 C 77.76238,561.63762 77.7496,561.01626 76.93389,560.20055 z M 58.86388,548.29997 C 58.69735,547.59412 58.96556,546.75037 59.45991,546.42497 C 61.14944,545.31285 61.74731,540.57825 60.26982,540.01128 C 59.34909,539.65797 58.69115,540.46094 58.30037,542.41484 C 57.97762,544.0286 57.16722,545.23294 56.4995,545.09114 C 54.77516,544.72497 54.19716,548.42103 55.81828,549.44725 C 57.57586,550.55985 59.24841,549.9298 58.86388,548.29997 z M 126.08542,547.9822 C 125.73985,547.08164 125.0324,546.60729 124.51333,546.9281 C 123.95063,547.27587 124.05048,548.09087 124.76061,548.94652 C 126.22349,550.70918 126.93353,550.19234 126.08542,547.9822 z M 47.95809,539.54708 C 47.78095,536.04874 48.00703,535.51831 49.45809,536.02779 C 50.6746,536.45492 50.8737,536.30673 50.14942,535.51326 C 49.58994,534.90033 48.11795,534.66406 46.87835,534.98823 C 45.03751,535.46962 44.84565,535.84406 45.83129,537.03169 C 46.77864,538.17317 46.76016,538.65751 45.74536,539.2847 C 44.93697,539.78431 44.71186,540.90035 45.14452,542.26353 C 46.2896,545.87135 48.18563,544.04076 47.95809,539.54708 z M 96.65136,543.08333 C 96.65978,543.77083 97.1325,544.33333 97.70185,544.33333 C 98.37202,544.33333 98.32146,543.55681 97.55846,542.13113 C 96.71207,540.54965 96.69114,539.82517 97.48421,539.56082 C 98.14253,539.34138 98.3519,538.00949 98.00261,536.26302 C 97.47374,533.61867 97.67234,533.33333 100.04167,533.33333 C 101.48542,533.33333 102.66667,532.94573 102.66667,532.472 C 102.66667,531.99827 101.54167,531.82573 100.16667,532.08858 L 97.66667,532.56648 L 97.66667,517.52134 C 97.66667,505.80547 97.98325,502.15961 99.09729,501.04556 C 100.53196,499.6109 119.82598,494.33333 123.63623,494.33333 C 124.75297,494.33333 125.66667,493.88333 125.66667,493.33333 C 125.66667,491.89405 121.7386,492.1018 116.0756,493.84059 C 113.37569,494.66958 108.24721,496.03791 104.67897,496.88132 C 93.74853,499.46492 93.66667,499.57879 93.66667,512.20082 C 93.66667,527.89973 94.82771,544.68461 95.80684,543.14077 C 96.44052,542.14163 96.63966,542.12808 96.65136,543.08333 z M 125.43491,541.08333 C 127.15816,519.87691 126.56632,494.82169 124.47234,500.33333 C 123.85947,501.94648 123.88601,504.07492 124.54714,506.33333 C 125.21865,508.62717 125.2757,514.82915 124.7127,524.3301 C 124.24023,532.30332 124.06314,539.16582 124.31918,539.5801 C 124.57522,539.99438 124.3347,540.33333 123.7847,540.33333 C 123.2347,540.33333 122.50205,539.87599 122.15659,539.31702 C 121.81113,538.75805 121.08264,538.57625 120.53773,538.91302 C 119.96715,539.26566 120.31452,540.10726 121.35683,540.89753 C 123.63621,542.62572 125.3034,542.70168 125.43491,541.08333 z M 131.3724,485.08333 C 131.13405,483.84583 130.93903,484.85833 130.93903,487.33333 C 130.93903,489.80833 131.13405,490.82083 131.3724,489.58333 C 131.61076,488.34583 131.61076,486.32083 131.3724,485.08333 z M 104.48891,478.92202 C 110.36168,477.59581 118.39759,475.95438 122.34649,475.27441 C 129.01343,474.12642 132.75866,472.86203 131.63771,472.1377 C 125.87978,468.41709 122.70872,467.66575 117.03631,468.67812 C 111.57679,469.65249 108.21043,471.7861 109.31436,473.5723 C 109.57305,473.99087 109.30815,474.33333 108.72569,474.33333 C 108.14323,474.33333 107.66667,473.68489 107.66667,472.89235 C 107.66667,472.09981 107.23273,471.18318 106.70237,470.85539 C 105.59345,470.17004 87.52432,473.11562 86.46082,474.15511 C 85.24611,475.34241 89.73314,481.33333 91.83711,481.33333 C 92.92283,481.33333 98.61614,480.24824 104.48891,478.92202 z M 99.16667,470.22504 C 114.84612,467.46217 114.39381,467.61968 112.07017,465.73166 C 109.99618,464.04648 110.67624,464.18375 114.93688,466.31028 C 116.76398,467.2222 118.04393,467.35607 118.69653,466.70347 C 119.65639,465.74361 109.90327,461.41843 103.41667,459.92736 C 99.74681,459.08378 99.89994,460.7731 103.63351,462.3196 C 105.26528,462.99549 107.10499,464.15655 107.72176,464.89971 C 109.03077,466.47697 108.29577,466.69817 96.16667,468.37715 C 85.64842,469.83315 83.56929,470.36675 84.2326,471.44 C 84.99193,472.66862 85.56266,472.62219 99.16667,470.22504 z M 94.69556,411.25919 L 95.27961,408.83333 L 95.87952,411.08333 C 96.80813,414.56615 99.66667,413.95551 99.66667,410.27431 C 99.66667,408.59185 100.05632,407.45611 100.53256,407.75045 C 101.0088,408.04478 101.1836,409.40952 100.921,410.7832 C 100.48596,413.05898 100.74212,413.27251 103.80511,413.18729 C 105.65397,413.13585 107.61667,413.20096 108.16667,413.33197 C 110.9283,413.9898 111.52247,413.21961 110.95432,409.7185 C 110.40188,406.31421 110.5002,406.14572 112.64242,406.82563 C 114.37717,407.37622 114.75111,407.22545 114.21774,406.19046 C 113.83308,405.44404 114.17969,405.64251 114.98799,406.63151 C 116.33373,408.27811 116.4924,408.02521 116.87023,403.63151 C 117.55679,395.64775 117.33316,395.3796 110.31242,395.76838 C 105.86043,396.01492 105.26906,395.92659 108.16667,395.44786 L 112.16667,394.78701 L 107.16667,393.94409 C 104.41667,393.48048 100.36667,392.95744 98.16667,392.78178 C 95.96667,392.60612 91.01667,391.99227 87.16667,391.41767 C 83.31667,390.84307 78.59167,390.3632 76.66667,390.35128 L 73.16667,390.32961 L 73.66667,400.33333 C 73.94167,405.83537 73.77407,410.33621 73.29423,410.33519 C 72.81438,410.33417 72.99781,411.0274 73.70184,411.87571 C 74.45719,412.78585 75.34958,413.05042 75.87887,412.52113 C 76.93528,411.46472 88.49149,412.15691 90.66667,413.40688 C 92.83701,414.65406 94.03151,414.01731 94.69556,411.25919 z M 104.24962,410.46755 C 103.81885,409.77054 103.73646,408.93021 104.06653,408.60013 C 104.9615,407.70517 105.9373,409.02143 105.45392,410.47158 C 105.1152,411.48775 104.87965,411.48696 104.24962,410.46755 z M 79.66667,409.39235 C 79.66667,408.87481 80.11152,408.17643 80.65522,407.84041 C 81.22208,407.49007 81.38972,407.89147 81.04823,408.78139 C 80.38344,410.51381 79.66667,410.83078 79.66667,409.39235 z M 88.66667,408.39235 C 88.66667,407.87481 89.11152,407.17643 89.65522,406.84041 C 90.22208,406.49007 90.38972,406.89147 90.04823,407.78139 C 89.38344,409.51381 88.66667,409.83078 88.66667,408.39235 z M 91.66667,407.33333 C 91.66667,406.78333 92.11667,406.33333 92.66667,406.33333 C 93.21667,406.33333 93.66667,406.78333 93.66667,407.33333 C 93.66667,407.88333 93.21667,408.33333 92.66667,408.33333 C 92.11667,408.33333 91.66667,407.88333 91.66667,407.33333 z M 96.66667,406.77431 C 96.66667,405.91685 96.21667,405.49341 95.66667,405.83333 C 95.11667,406.17325 94.66667,405.92666 94.66667,405.28536 C 94.66667,404.63296 95.36342,404.38672 96.24846,404.72634 C 97.11844,405.06019 98.22932,405.33333 98.71707,405.33333 C 99.20483,405.33333 99.34488,406.00833 99.0283,406.83333 C 98.27253,408.80283 96.66667,408.76269 96.66667,406.77431 z M 85.66667,401.33333 C 85.66667,400.78333 86.11667,400.33333 86.66667,400.33333 C 87.21667,400.33333 87.66667,400.78333 87.66667,401.33333 C 87.66667,401.88333 87.21667,402.33333 86.66667,402.33333 C 86.11667,402.33333 85.66667,401.88333 85.66667,401.33333 z M 102.66667,401.33333 C 102.66667,400.78333 103.36823,400.33333 104.22569,400.33333 C 105.08315,400.33333 105.50659,400.78333 105.16667,401.33333 C 104.82675,401.88333 104.12519,402.33333 103.60765,402.33333 C 103.09011,402.33333 102.66667,401.88333 102.66667,401.33333 z M 88.78853,400.05518 C 87.26537,398.53203 87.37061,396.33333 88.96667,396.33333 C 90.34982,396.33333 92.66667,398.2701 92.66667,399.42634 C 92.66667,400.7313 89.91141,401.17807 88.78853,400.05518 z M 109.4229,400.67367 C 110.11383,400.39253 110.37751,399.67447 110.00886,399.07798 C 109.57617,398.37788 109.95742,398.23092 111.08441,398.66339 C 112.04462,399.03186 113.01844,399.33333 113.24846,399.33333 C 113.47847,399.33333 113.66667,399.68518 113.66667,400.11522 C 113.66667,400.54526 112.42917,400.96185 110.91667,401.04097 C 109.40417,401.12009 108.73197,400.9548 109.4229,400.67367 z M 93.66667,397.89235 C 93.66667,397.64981 94.11667,397.17325 94.66667,396.83333 C 95.21667,396.49341 95.66667,396.69185 95.66667,397.27431 C 95.66667,397.85677 95.21667,398.33333 94.66667,398.33333 C 94.11667,398.33333 93.66667,398.13489 93.66667,397.89235 z M 80.9375,394.72916 C 81.2698,394.39687 82.13229,394.36135 82.85417,394.65022 C 83.6519,394.96944 83.41495,395.2064 82.25,395.25438 C 81.19584,395.2978 80.60521,395.06145 80.9375,394.72916 z M 87.91667,393.644 C 88.87917,393.39248 90.45417,393.39248 91.41667,393.644 C 92.37917,393.89553 91.59167,394.10133 89.66667,394.10133 C 87.74167,394.10133 86.95417,393.89553 87.91667,393.644 z M 78.17375,392.34478 C 77.82341,391.77792 78.22481,391.61028 79.11473,391.95177 C 80.84715,392.61656 81.16412,393.33333 79.72569,393.33333 C 79.20815,393.33333 78.50977,392.88848 78.17375,392.34478 z"
         id="path2766" />
      <path
         style="fill:#2a2aff;fill-opacity:1"
         d="M 74.66667,574.63672 C 67.79167,569.99009 61.03946,565.65843 59.66175,565.01081 C 58.28405,564.3632 52.54655,560.94827 46.91175,557.42209 C 39.26344,552.63587 36.66321,550.48142 36.65302,548.92209 C 36.64551,547.77327 36.41127,545.70833 36.13249,544.33333 C 35.78248,542.60701 35.86738,542.37279 36.40683,543.57647 C 36.83649,544.5352 41.90823,547.95686 47.67735,551.18015 C 53.44648,554.40344 63.88978,560.25653 70.88469,564.187 C 77.8796,568.11748 84.0671,571.33333 84.63469,571.33333 C 85.20228,571.33333 85.66667,572.00833 85.66667,572.83333 C 85.66667,573.65833 86.18877,574.33333 86.82689,574.33333 C 87.69892,574.33333 87.81581,564.89822 87.29747,536.34828 C 86.67897,502.28099 86.78596,497.62528 88.33475,491.20842 C 90.05727,484.0718 90.05584,484.04319 87.77264,479.94348 C 74.08639,455.3685 72.54194,448.89742 71.75547,412.83333 L 71.16667,385.83333 L 62.31177,385.54287 C 46.66323,385.02956 36.94108,389.86932 32.9751,400.14691 C 30.62492,406.23723 30.61197,419.03743 32.90659,467.83333 C 35.05582,513.53727 35.54196,519.52164 37.03295,518.62852 C 37.79459,518.17229 37.77507,518.43382 36.97346,519.42541 C 35.74472,520.94535 35.74351,523.74351 36.97106,524.97105 C 37.35364,525.35364 37.66667,526.91511 37.66667,528.44098 C 37.66667,531.27348 39.09093,533.07391 40.07371,531.48375 C 40.37358,530.99854 41.76757,530.82112 43.17145,531.08949 C 45.10726,531.45955 45.58286,532.02204 45.13992,533.41761 C 44.81869,534.42971 45.02721,536.13848 45.60328,537.21489 C 46.35123,538.61245 46.32913,539.27918 45.52599,539.54689 C 43.97339,540.06442 45.43709,544.33333 47.16713,544.33333 C 48.15136,544.33333 48.43205,543.23262 48.17208,540.39248 C 47.87486,537.14531 48.08668,536.55727 49.37547,537.05183 C 50.43386,537.45797 50.77982,537.19636 50.44549,536.24268 C 50.17375,535.46754 49.24793,534.8899 48.38812,534.95904 C 47.44649,535.03476 47.03476,534.53768 47.35274,533.70904 C 48.6397,530.35528 53.07538,533.36471 54.16633,538.33177 C 54.54051,540.0354 55.27837,541.07331 55.85984,540.71394 C 56.42658,540.36368 57.25925,540.67411 57.71022,541.4038 C 58.24804,542.27401 57.62888,543.56578 55.91074,545.1581 C 53.39024,547.49402 53.36227,547.63758 55.17012,548.95951 C 57.69292,550.80423 60.03393,550.73279 59.30504,548.83333 C 58.98846,548.00833 59.11424,547.33333 59.58456,547.33333 C 61.29567,547.33333 61.45582,540.90511 59.77879,539.53758 C 58.41564,538.42602 58.53244,538.40118 60.53512,539.37674 C 62.59545,540.38039 62.83436,541.04642 62.37161,544.49648 C 61.96214,547.54934 62.20886,548.60416 63.44319,549.07782 C 64.32514,549.41625 65.22465,549.15939 65.44211,548.50701 C 65.88943,547.16505 67.66667,547.91951 67.66667,549.45136 C 67.66667,550.00136 67.21667,550.17325 66.66667,549.83333 C 66.08325,549.47275 65.66667,550.48961 65.66667,552.27431 C 65.66667,553.97138 66.2232,555.40302 66.91667,555.48985 C 72.2206,556.15401 73.67187,555.92967 73.74562,554.43424 C 73.79662,553.40005 74.00311,553.27582 74.32895,554.08333 C 74.60636,554.77083 75.75436,555.33333 76.88006,555.33333 C 78.71066,555.33333 78.87385,555.80289 78.42552,559.78041 C 77.95406,563.96322 78.09489,564.28696 80.79547,565.22839 C 82.37463,565.77888 83.66667,566.9064 83.66667,567.73397 C 83.66667,568.79574 80.79669,567.59979 73.91667,563.67105 C 68.55417,560.60887 58.54167,554.9752 51.66667,551.15178 C 44.79167,547.32837 38.73917,543.7801 38.21667,543.26673 C 36.66425,541.74143 39.06633,542.16838 41.22554,543.80153 C 43.50837,545.52817 44.66667,545.71402 44.66667,544.35365 C 44.66667,542.76736 36.69087,539.04621 36.54191,540.56301 C 36.02051,545.87219 34.55255,524.69701 33.23308,492.83333 C 32.36761,471.93333 31.14701,447.85833 30.52065,439.33333 C 28.95483,418.02216 29.6521,404.0606 32.58479,398.00247 C 37.24157,388.38284 45.71745,384.33333 61.19516,384.33333 C 68.92531,384.33333 70.72178,384.64654 72.66667,386.33333 C 73.93498,387.43333 76.36633,388.33327 78.06968,388.3332 C 79.77302,388.33314 88.73376,389.26368 97.98242,390.40109 C 111.07313,392.01099 115.11588,392.20541 116.23242,391.27877 C 117.32386,390.37294 118.00146,390.36629 119.06737,391.25092 C 120.17647,392.17139 120.56546,397.66166 120.93589,417.62337 C 121.35178,440.03471 121.6433,443.54659 123.56193,449.25834 C 125.81385,455.9623 130.29938,464.52626 134.47506,470.09414 C 136.71632,473.08264 136.82536,473.70897 135.78082,477.59414 C 133.68641,485.38429 132.76799,495.66036 132.18445,517.83333 C 131.86601,529.93333 131.3525,543.99225 131.04334,549.07538 L 130.48121,558.31744 L 119.82394,564.654 C 99.94483,576.47364 88.03042,583.33375 87.59781,583.20924 C 87.36068,583.14099 81.54167,579.28336 74.66667,574.63672 z M 93.04103,564.27297 C 92.62051,561.64318 92.78603,560.33333 93.53886,560.33333 C 94.15916,560.33333 94.66667,559.27404 94.66667,557.97935 C 94.66667,554.1366 101.60291,547.8275 101.69847,551.58333 C 101.71739,552.32686 102.28625,552.10003 103.10247,551.02349 C 105.52841,547.82383 105.97543,551.14503 103.75472,555.8694 C 102.60629,558.31257 101.66667,561.12644 101.66667,562.12243 C 101.66667,563.11843 101.13417,564.46583 100.48334,565.11666 C 99.8325,565.7675 99.57022,566.57021 99.90049,566.90048 C 100.69145,567.69144 112.8061,561.63647 116.10621,558.80077 C 118.68462,556.58521 118.68559,556.57829 116.75134,554.2076 L 114.81417,551.83333 L 111.24042,555.2795 C 108.56788,557.85662 107.66667,558.29793 107.66667,557.0295 C 107.66667,556.09661 108.11667,555.33333 108.66667,555.33333 C 109.21667,555.33333 109.67356,554.54583 109.68198,553.58333 C 109.69349,552.26834 109.90376,552.15888 110.52788,553.143 C 111.1548,554.13154 111.76404,553.83368 113.01256,551.92818 C 113.92232,550.53971 114.66667,548.93786 114.66667,548.36851 C 114.66667,547.79916 115.08177,547.33333 115.58912,547.33333 C 116.09646,547.33333 117.01722,545.80119 117.63523,543.92858 C 118.7448,540.56656 119.44484,540.28747 122.9598,541.80583 C 123.94602,542.23185 125.06071,542.27263 125.43688,541.89645 C 125.81305,541.52028 126.29601,530.66139 126.51012,517.76559 C 126.9414,491.78925 126.78844,491.02999 121.38715,492.33592 C 107.25464,495.75289 98.10766,498.46959 95.92894,499.89714 L 93.35431,501.5841 L 94.0058,525.70872 C 94.48307,543.38202 94.33332,550.90299 93.44582,553.83333 C 92.3886,557.32406 92.13395,554.56676 91.44573,532.17673 C 90.58109,504.0474 91.00481,500.62821 95.79588,497.07378 C 98.13484,495.33853 120.50975,489.39485 124.86967,489.35061 C 127.98852,489.31896 128.51805,495.11065 127.67528,520.03696 C 127.2045,533.96106 127.24325,544.22745 127.76869,544.78333 C 128.30481,545.35051 128.70836,542.93267 128.77013,538.78333 C 128.9703,525.3366 130.44854,499.80135 131.19032,496.97696 C 131.60291,495.40596 131.53222,493.83096 131.03323,493.47696 C 130.53423,493.12296 129.58227,491.59583 128.91775,490.08333 C 127.97607,487.93996 127.03002,487.33333 124.62909,487.33333 C 122.8301,487.33333 121.80574,486.91733 122.16667,486.33333 C 123.13094,484.77311 121.24598,485.06443 104.5145,489.06147 L 88.86234,492.80068 L 88.31882,497.317 C 88.01988,499.80098 88.20784,514.43333 88.7365,529.83333 C 89.26516,545.23333 89.68434,558.73333 89.66802,559.83333 C 89.62154,562.96496 91.87093,569.32513 92.81796,568.73983 C 93.28713,568.44986 93.38751,566.43978 93.04103,564.27297 z M 102.66667,562.95716 C 102.66667,561.4294 104.75238,560.33333 107.65956,560.33333 C 108.66569,560.33333 110.62627,558.98162 112.01641,557.32953 C 113.69336,555.33659 114.78427,554.71459 115.25808,555.48124 C 116.09275,556.83175 114.00185,558.55129 107.41667,561.92994 C 103.81516,563.77777 102.66667,564.02614 102.66667,562.95716 z M 104.68198,557.58333 C 104.6904,557.17083 105.13351,556.15833 105.66667,555.33333 C 106.45054,554.12037 106.63897,554.26389 106.65136,556.08333 C 106.65978,557.32083 106.21667,558.33333 105.66667,558.33333 C 105.11667,558.33333 104.67356,557.99583 104.68198,557.58333 z M 95.66667,547.5197 C 95.66667,544.26512 95.98278,543.5174 97.16667,543.9717 C 98.82875,544.6095 99.24919,542.81138 97.66667,541.83333 C 97.11667,541.49341 96.66667,540.7653 96.66667,540.2153 C 96.66667,539.6653 97.14537,539.51115 97.73045,539.87275 C 98.45272,540.31914 98.57314,539.35171 98.10555,536.85925 C 97.57644,534.03882 97.73543,533.23255 98.79177,533.37929 C 101.28885,533.72619 102.66667,533.34749 102.66667,532.31428 C 102.66667,531.72663 101.60832,531.56086 100.16667,531.92269 L 97.66667,532.55015 L 97.68198,517.69174 C 97.6904,509.51961 98.0372,502.29877 98.45263,501.64542 C 99.22943,500.42373 114.17913,495.7532 120.57528,494.73393 L 124.16667,494.16161 L 124.45925,506.99747 C 124.62017,514.05719 124.46313,524.46397 124.11027,530.12363 C 123.57989,538.63066 123.23352,540.21873 122.1115,539.28754 C 121.36503,538.66803 120.2081,538.49871 119.54054,538.91129 C 118.68535,539.43982 118.53132,539.12844 119.01913,537.85721 C 119.48854,536.63395 119.06027,535.59689 117.68907,534.63647 C 116.57675,533.85737 115.66667,532.372 115.66667,531.33564 C 115.66667,530.29929 115.19405,529.15927 114.6164,528.80226 C 113.18347,527.91666 106.66667,531.1167 106.66667,532.70593 C 106.66667,533.40926 105.52841,535.05404 104.1372,536.36102 C 102.74599,537.66799 101.84083,539.34481 102.12574,540.08727 C 102.41065,540.82973 102.19892,541.16228 101.65522,540.82625 C 100.06461,539.8432 100.52015,542.96684 102.16667,544.33333 C 104.25609,546.06739 104.04128,547.0844 101.41667,547.88422 C 100.17917,548.26134 98.37917,549.26141 97.41667,550.1066 C 95.78449,551.53985 95.66667,551.36569 95.66667,547.5197 z M 109.20938,541.40243 C 108.89294,540.89043 109.09139,540.18887 109.65036,539.84341 C 110.20933,539.49795 110.66667,539.91685 110.66667,540.77431 C 110.66667,542.53084 110.06661,542.78947 109.20938,541.40243 z M 103.66667,540.89235 C 103.66667,540.64981 104.11667,540.17325 104.66667,539.83333 C 105.21667,539.49341 105.66667,539.69185 105.66667,540.27431 C 105.66667,540.85677 105.21667,541.33333 104.66667,541.33333 C 104.11667,541.33333 103.66667,541.13489 103.66667,540.89235 z M 107.42051,534.16666 C 107.68419,533.15833 108.65745,532.33333 109.5833,532.33333 C 110.50915,532.33333 111.80667,531.79333 112.46667,531.13333 C 113.30248,530.29752 113.66667,530.2727 113.66667,531.05154 C 113.66667,533.45743 112.43394,535.18125 111.08391,534.6632 C 110.30443,534.36408 109.66667,534.5425 109.66667,535.05967 C 109.66667,535.57685 109.05341,536 108.30387,536 C 107.4747,536 107.12881,535.28212 107.42051,534.16666 z M 77.66667,560.70476 C 77.66667,558.79682 73.51757,559.24424 72.86527,561.22253 C 72.60235,562.0199 72.85905,562.33247 73.46784,561.95621 C 74.05119,561.59568 74.81566,561.76539 75.16667,562.33333 C 76.00961,563.69724 77.66667,562.61778 77.66667,560.70476 z M 126.66667,549.91512 C 126.66667,548.42941 125.31475,546.43279 124.60556,546.8711 C 123.57115,547.5104 124.52356,550.33333 125.77366,550.33333 C 126.26481,550.33333 126.66667,550.14513 126.66667,549.91512 z M 131.58072,487.08333 C 131.49732,482.95989 131.46769,482.92267 130.58552,485.83333 C 130.08544,487.48333 129.885,489.39583 130.14009,490.08333 C 131.05198,492.54093 131.66526,491.2638 131.58072,487.08333 z M 105.48891,478.91939 C 111.36168,477.59172 118.19167,476.21027 120.66667,475.84949 C 126.30832,475.02712 131.67884,473.38883 131.62782,472.50578 C 131.60645,472.13593 129.46895,470.84023 126.87782,469.62643 C 122.88577,467.75639 121.40348,467.5529 117.16667,468.29328 C 110.81559,469.40311 108.53285,470.30779 109.23143,471.43812 C 109.53573,471.93048 109.30815,472.33333 108.72569,472.33333 C 108.14323,472.33333 107.66667,471.83148 107.66667,471.21811 C 107.66667,470.46368 105.80645,470.27988 101.91667,470.64999 C 96.60237,471.15565 96.73497,471.0856 103.66667,469.72553 C 114.18032,467.66265 114.35279,467.58121 112.07017,465.7574 C 110.4075,464.42893 110.57158,464.43242 113.36701,465.78492 C 116.85784,467.47388 119.66667,467.80159 119.66667,466.51991 C 119.66667,465.68688 108.35766,461.00433 103.41667,459.79152 C 99.70877,458.88139 99.86997,460.76068 103.63351,462.3196 C 105.26528,462.99549 107.08678,464.13461 107.68131,464.85097 C 108.91176,466.33358 108.03431,466.57909 95.16667,468.35251 C 90.76667,468.95892 86.37264,469.68508 85.40215,469.9662 C 82.91668,470.68616 84.25902,472.30673 87.47569,472.46951 C 89.83258,472.58879 89.88733,472.6595 87.91667,473.03906 C 85.15998,473.57002 85.15326,473.76654 87.74823,477.9653 C 90.28854,482.07561 91.28963,482.12945 105.48891,478.91939 z M 91.39764,471.67739 C 92.07467,471.40347 93.42467,471.3868 94.39764,471.64034 C 95.37061,471.89388 94.81667,472.118 93.16667,472.13838 C 91.51667,472.15876 90.72061,471.95132 91.39764,471.67739 z M 94.78267,412.08333 C 94.86127,410.55882 95.03975,410.36446 95.3362,411.48055 C 95.67225,412.74571 97.04513,413.14295 101.25533,413.19324 C 104.2702,413.22925 107.13051,413.50196 107.61155,413.79927 C 108.0926,414.09657 109.22502,414.0563 110.12803,413.70978 C 111.32881,413.249 111.60782,412.34185 111.1666,410.33299 C 110.64764,407.97022 110.92001,407.51805 113.11499,407.09846 C 114.88183,406.76071 115.66667,407.04754 115.66667,408.03102 C 115.66667,408.81221 116.05942,409.20863 116.53945,408.91195 C 117.50497,408.31523 117.91835,399.78465 117.10794,397.1805 C 116.73645,395.98679 114.17322,395.08956 107.88012,393.95042 C 103.08772,393.08293 98.26667,392.41515 97.16667,392.46648 C 96.06667,392.5178 92.01667,392.06775 88.16667,391.46637 C 84.31667,390.86499 79.36667,390.3632 77.16667,390.35128 L 73.16667,390.32961 L 73.66667,400.33354 C 73.97773,406.55718 73.78879,410.47388 73.16667,410.69849 C 70.3614,411.71128 74.49754,412.59882 81.39141,412.46337 C 85.6678,412.37935 89.84167,412.75883 90.66667,413.30666 C 93.11993,414.9357 94.6592,414.47821 94.78267,412.08333 z M 104.23096,409.62646 C 103.68828,408.20126 103.80314,408.0864 104.79076,409.06666 C 105.47418,409.745 105.78143,410.5519 105.47354,410.85979 C 105.16565,411.16768 104.60649,410.61268 104.23096,409.62646 z M 91.66667,407.33333 C 91.66667,406.78333 91.86511,406.33333 92.10765,406.33333 C 92.35019,406.33333 92.82675,406.78333 93.16667,407.33333 C 93.50659,407.88333 93.30815,408.33333 92.72569,408.33333 C 92.14323,408.33333 91.66667,407.88333 91.66667,407.33333 z M 96.25077,405.69189 C 95.75296,404.39462 95.90708,404.28797 96.98579,405.18321 C 97.73648,405.80623 98.71893,405.98238 99.169,405.57465 C 99.61908,405.16693 99.66362,405.39583 99.26798,406.08333 C 98.27346,407.8115 97.00078,407.64638 96.25077,405.69189 z M 85.66667,401.89235 C 85.66667,401.64981 86.11667,401.17325 86.66667,400.83333 C 87.21667,400.49341 87.66667,400.69185 87.66667,401.27431 C 87.66667,401.85677 87.21667,402.33333 86.66667,402.33333 C 86.11667,402.33333 85.66667,402.13489 85.66667,401.89235 z M 103.17675,401.34964 C 102.83129,400.79067 103.25019,400.33333 104.10765,400.33333 C 105.86418,400.33333 106.12281,400.93339 104.73577,401.79063 C 104.22377,402.10706 103.52221,401.90861 103.17675,401.34964 z M 88.86667,400.13333 C 88.20667,399.47333 87.66667,398.34833 87.66667,397.63333 C 87.66667,395.79772 90.60617,396.01209 91.33084,397.90055 C 92.15733,400.05435 90.38951,401.65617 88.86667,400.13333 z M 110.43512,400.16488 C 111.01622,399.58378 112.08194,399.30509 112.80338,399.54557 C 113.55233,399.79522 113.09903,400.24851 111.74683,400.60212 C 110.08348,401.03709 109.69305,400.90695 110.43512,400.16488 z M 93.66667,397.89235 C 93.66667,397.64981 94.11667,397.17325 94.66667,396.83333 C 95.21667,396.49341 95.66667,396.69185 95.66667,397.27431 C 95.66667,397.85677 95.21667,398.33333 94.66667,398.33333 C 94.11667,398.33333 93.66667,398.13489 93.66667,397.89235 z M 106.42833,395.62607 C 107.67224,395.38688 109.47224,395.39596 110.42833,395.64625 C 111.38442,395.89654 110.36667,396.09225 108.16667,396.08115 C 105.96667,396.07005 105.18442,395.86526 106.42833,395.62607 z M 87.39764,393.67739 C 88.07467,393.40347 89.42467,393.3868 90.39764,393.64034 C 91.37061,393.89388 90.81667,394.118 89.16667,394.13838 C 87.51667,394.15876 86.72061,393.95132 87.39764,393.67739 z M 75.15659,552.31702 C 74.81112,551.75805 74.11472,551.55642 73.60903,551.86896 C 73.10333,552.18149 72.95757,551.73883 73.28511,550.88527 C 73.94576,549.16366 75.66667,548.76483 75.66667,550.33333 C 75.66667,550.88333 76.34167,551.33333 77.16667,551.33333 C 77.99167,551.33333 78.66667,551.78333 78.66667,552.33333 C 78.66667,553.64032 75.96668,553.62777 75.15659,552.31702 z M 64.06019,543.43163 C 64.11875,541.8357 64.50417,540.73726 64.91667,540.99065 C 65.95679,541.62958 65.86304,546.33333 64.81019,546.33333 C 64.33913,546.33333 64.00162,545.02757 64.06019,543.43163 z M 75.66667,534.33333 C 74.76538,533.75087 74.64204,533.35784 75.35765,533.34864 C 76.01269,533.34022 76.82675,533.78333 77.16667,534.33333 C 77.93397,535.57486 77.58779,535.57486 75.66667,534.33333 z M 55.24979,527.80709 C 46.20853,523.83998 45.95979,523.77666 47.71251,525.88857 C 48.85991,527.27109 48.71041,527.31038 46.36632,526.24234 C 43.25844,524.8263 43.58964,523.77237 47.36959,523.04979 C 50.29539,522.49049 63.66667,528.47674 63.66667,530.3459 C 63.66667,531.6033 64.41807,531.82995 55.24979,527.80709 z M 41.28003,523.16147 C 40.85798,522.24195 40.99343,520.59129 41.58104,519.49333 C 42.16865,518.39538 42.38097,516.15483 42.05287,514.51433 C 41.72477,512.87384 41.93997,510.6995 42.53109,509.68247 C 43.40798,508.17377 43.61145,508.70783 43.63626,512.58333 C 43.67014,517.87505 45.58528,519.19746 45.80858,514.08333 C 45.94326,510.99881 45.98341,511.03699 46.59722,514.83333 C 47.23663,518.78799 46.7215,522.99782 45.89982,520.53277 C 45.14894,518.28014 42.80028,519.32771 42.42346,522.08333 C 42.1254,524.26299 41.88826,524.4866 41.28003,523.16147 z M 66.63477,518.74941 C 65.17474,514.90926 66.6226,513.71947 68.77779,516.98836 C 71.05726,520.44574 71.13164,521.33333 69.14192,521.33333 C 68.30331,521.33333 67.17509,520.17057 66.63477,518.74941 z M 53.9375,518.72916 C 54.2698,518.39687 55.13229,518.36135 55.85417,518.65022 C 56.6519,518.96944 56.41495,519.2064 55.25,519.25438 C 54.19584,519.2978 53.60521,519.06146 53.9375,518.72916 z M 50.74562,517.52431 C 50.7022,516.80435 50.21667,516.49341 49.66667,516.83333 C 49.11667,517.17325 48.66667,516.52481 48.66667,515.39235 C 48.66667,514.22878 49.319,513.33333 50.16667,513.33333 C 50.99167,513.33333 51.66667,512.86559 51.66667,512.2939 C 51.66667,511.6904 52.23983,511.78989 53.03335,512.53115 C 54.12094,513.54711 54.14444,514.01463 53.14838,514.82057 C 52.45998,515.37759 51.6555,516.50833 51.36065,517.33333 C 50.99709,518.35058 50.79916,518.41205 50.74562,517.52431 z M 64.23691,513.01089 C 64.49452,512.33957 65.60676,511.22733 66.70855,510.53925 C 68.5588,509.38375 68.61625,509.4412 67.46075,511.29145 C 66.05522,513.54207 63.51271,514.89811 64.23691,513.01089 z M 54.74562,510.91666 C 54.7022,509.8625 54.93854,509.27187 55.27084,509.60416 C 55.60313,509.93646 55.63866,510.79896 55.34978,511.52083 C 55.03056,512.31856 54.7936,512.08161 54.74562,510.91666 z M 81.24962,511.46754 C 80.81885,510.77054 80.73646,509.93021 81.06653,509.60013 C 81.9615,508.70517 82.9373,510.02143 82.45392,511.47158 C 82.1152,512.48775 81.87965,512.48696 81.24962,511.46754 z M 50.57004,504.83333 C 50.27974,501.23483 49.74622,499.83333 48.66667,499.83333 C 47.84167,499.83333 46.37917,498.58495 45.41667,497.05916 C 43.18325,493.51866 43.21645,492.98233 45.6299,493.61346 C 47.64486,494.14039 50.17034,492.17034 48.99133,490.99132 C 48.62943,490.62943 48.85834,490.33333 49.5,490.33333 C 50.14167,490.33333 50.66667,491.59333 50.66667,493.13333 C 50.66667,494.67333 51.22917,496.53956 51.91667,497.28051 C 52.93707,498.38024 52.84523,498.51458 51.41667,498.01189 C 49.18846,497.22783 49.12272,498.92954 51.33342,500.16671 C 52.7514,500.96025 52.84892,501.75125 51.98679,505.4664 L 50.97342,509.83333 L 50.57004,504.83333 z M 57.82456,507.33333 C 57.82456,505.95833 58.05154,505.39583 58.32895,506.08333 C 58.60636,506.77083 58.60636,507.89583 58.32895,508.58333 C 58.05154,509.27083 57.82456,508.70833 57.82456,507.33333 z M 77.82456,507.33333 C 77.82456,505.95833 78.05154,505.39583 78.32895,506.08333 C 78.60636,506.77083 78.60636,507.89583 78.32895,508.58333 C 78.05154,509.27083 77.82456,508.70833 77.82456,507.33333 z M 40.66667,503.74054 C 40.66667,502.68118 39.80714,501.27764 38.7566,500.62156 C 36.64844,499.305 34.97338,493.60723 36.31551,492.3181 C 36.78365,491.86844 37.82693,492.22358 38.63391,493.10729 C 39.94117,494.53884 39.90179,494.63753 38.27267,494.01238 C 36.68852,493.40448 36.53672,493.67944 37.13671,496.06998 C 38.01501,499.56941 38.56961,500.10841 39.5912,498.45545 C 40.1412,497.56553 40.63318,498.34129 41.10131,500.8366 C 41.48319,502.8722 41.54162,504.79171 41.23115,505.10218 C 40.92069,505.41265 40.66667,504.79991 40.66667,503.74054 z M 61.66667,496.39235 C 61.66667,495.80989 62.11667,495.33333 62.66667,495.33333 C 63.21667,495.33333 63.66667,495.53177 63.66667,495.77431 C 63.66667,496.01685 63.21667,496.49341 62.66667,496.83333 C 62.11667,497.17325 61.66667,496.97481 61.66667,496.39235 z M 80.34765,489.271 C 82.14683,485.66446 82.69425,485.77039 81.96179,489.58333 C 81.67124,491.09583 80.84547,492.33333 80.12674,492.33333 C 79.09913,492.33333 79.14632,491.67913 80.34765,489.271 z M 70.16667,489.33333 C 69.82675,488.78333 70.25019,488.33333 71.10765,488.33333 C 71.96511,488.33333 72.66667,488.78333 72.66667,489.33333 C 72.66667,489.88333 72.24323,490.33333 71.72569,490.33333 C 71.20815,490.33333 70.50659,489.88333 70.16667,489.33333 z M 51.79858,485.08333 C 49.90448,479.06709 49.99635,478.05019 52.45217,477.8493 C 54.02806,477.72038 54.41616,477.98384 53.70217,478.69783 C 52.23793,480.16207 52.41814,481.33333 54.10765,481.33333 C 56.1204,481.33333 57.11371,483.28629 55.77954,484.62046 C 54.96238,485.43762 54.66667,485.22846 54.66667,483.83333 C 54.66667,482.35555 54.4,482.2 53.46667,483.13333 C 52.53334,484.06666 52.53334,484.6 53.46667,485.53333 C 54.89472,486.96138 55.03071,488.33333 53.74422,488.33333 C 53.23688,488.33333 52.36133,486.87083 51.79858,485.08333 z M 65.66667,487.39235 C 65.66667,486.80989 66.11667,486.33333 66.66667,486.33333 C 67.21667,486.33333 67.66667,486.53177 67.66667,486.77431 C 67.66667,487.01685 67.21667,487.49341 66.66667,487.83333 C 66.11667,488.17325 65.66667,487.97481 65.66667,487.39235 z M 43.1078,483.86513 C 42.04018,483.05763 41.67407,482.38262 42.29423,482.36513 C 42.91438,482.34764 43.98198,483.00833 44.66667,483.83333 C 46.24746,485.73807 45.60147,485.75125 43.1078,483.86513 z M 46.21867,481.77235 C 45.29576,480.36381 44.6935,478.75283 44.88032,478.19239 C 45.06713,477.63194 45.9882,478.78438 46.92715,480.75337 C 48.92487,484.94264 48.60107,485.40836 46.21867,481.77235 z M 65.01175,482.7902 C 64.68606,481.94148 64.64303,481.02363 64.91613,480.75054 C 65.18922,480.47744 65.65269,481.17185 65.94605,482.29367 C 66.5692,484.6766 65.87682,485.04456 65.01175,482.7902 z M 59.1078,478.88307 C 57.23303,477.48238 57.24359,477.45218 59.41667,477.9997 C 60.65417,478.31149 61.66667,478.96411 61.66667,479.44996 C 61.66667,480.64 61.37203,480.57473 59.1078,478.88307 z M 63.66667,469.83333 C 63.66667,469.00833 64.10255,468.33333 64.63528,468.33333 C 65.16802,468.33333 65.34488,469.00833 65.0283,469.83333 C 64.71171,470.65833 64.27584,471.33333 64.05968,471.33333 C 63.84352,471.33333 63.66667,470.65833 63.66667,469.83333 z"
         id="path2764" />
      <g
         id="g2794"
         style="fill:#2a2aff;fill-opacity:1">
        <path
           id="path2762"
           d="M 76.15999,574.99447 C 70.11366,570.9581 58.97917,563.94241 51.41667,559.40404 C 43.85417,554.86568 37.66667,550.55497 37.66667,549.82469 C 37.66667,549.09441 37.38808,547.7709 37.04757,546.88356 C 36.35658,545.08286 37.37134,545.59795 65.8049,561.48074 C 75.50593,566.89966 83.94343,571.33333 84.5549,571.33333 C 85.16638,571.33333 85.66667,572.43177 85.66667,573.77431 C 85.66667,575.11685 86.19102,576.53936 86.83189,576.93544 C 87.71488,577.48116 87.86443,567.98859 87.4493,537.74446 C 87.14801,515.79334 87.0587,498.50833 87.25085,499.33333 C 87.44299,500.15833 88.08037,515.00833 88.66724,532.33333 C 89.25411,549.65833 90.00012,565.08964 90.32504,566.62514 C 91.23558,570.92811 93.21394,569.24833 92.84919,564.48196 C 92.66,562.00976 92.96307,560.33333 93.59919,560.33333 C 94.1863,560.33333 94.66667,559.27404 94.66667,557.97935 C 94.66667,556.68467 95.80839,554.39344 97.20382,552.88774 C 99.25775,550.67152 100.01734,550.37947 101.19199,551.35434 C 102.34936,552.31487 102.76779,552.23339 103.25962,550.9517 C 103.59876,550.06791 104.30976,549.61275 104.83963,549.94022 C 105.36949,550.2677 105.50031,551.27761 105.13033,552.18448 C 102.23192,559.28893 99.80315,566.80315 100.25818,567.25817 C 101.02221,568.0222 113.466,561.34302 116.59013,558.49204 L 119.15572,556.15075 L 116.42096,553.7984 C 113.45053,551.24335 113.59067,548.87265 116.85082,546.52663 C 117.84954,545.80794 118.66667,544.34544 118.66667,543.27663 C 118.66667,541.20697 122.03426,540.50105 123.16667,542.33333 C 124.41971,544.3608 125.55644,543.2329 125.9382,539.58333 C 126.29511,536.17131 126.34561,536.26426 126.49857,540.61471 C 126.61958,544.05663 126.24646,545.55735 125.16667,545.9717 C 123.23659,546.71235 123.24777,548.74079 125.19084,550.35339 C 127.11305,551.94868 128.35073,550.8625 126.77465,548.96344 C 125.85918,547.86036 125.92717,547.21569 127.08061,546.06224 C 128.22923,544.91363 128.7998,539.64761 129.61125,522.7063 C 130.18746,510.67617 130.93857,498.86157 131.28038,496.45164 C 131.72072,493.34704 131.57612,492.27126 130.78426,492.76065 C 130.16959,493.14054 129.66667,492.97481 129.66667,492.39235 C 129.66667,491.80989 130.11667,491.33333 130.66667,491.33333 C 131.21667,491.33333 131.66667,489.53333 131.66667,487.33333 C 131.66667,485.13333 131.21667,483.33333 130.66667,483.33333 C 130.11667,483.33333 129.66667,485.00846 129.66667,487.05584 C 129.66667,490.76955 129.66285,490.77289 128.0497,488.46979 C 127.00794,486.98248 125.76287,486.33642 124.5497,486.65367 C 123.33471,486.97139 122.66667,486.62325 122.66667,485.67232 C 122.66667,484.7349 122.0298,484.3901 120.91667,484.72487 C 118.79511,485.36293 94.0467,491.30015 90.98986,491.9044 C 89.79262,492.14106 88.57128,493.12189 88.27578,494.08401 C 87.98028,495.04614 87.98358,494.48333 88.28312,492.83333 C 88.58266,491.18333 89.06409,488.14246 89.35296,486.07584 C 89.74598,483.2641 90.41787,482.2075 92.02242,481.87792 C 93.20176,481.63569 100.01667,480.24614 107.16667,478.79004 C 129.40026,474.26215 131.01293,473.86217 131.35901,472.78967 C 131.54423,472.21565 129.74681,470.79912 127.36473,469.64182 C 124.15942,468.08456 121.85544,467.67044 118.50057,468.04858 C 114.7191,468.47481 113.84978,468.25061 113.25781,466.69643 C 112.68864,465.20209 112.79742,465.08074 113.80742,466.08333 C 115.23936,467.50475 119.28351,467.76231 120.07451,466.48245 C 120.36374,466.01447 118.7028,465.04341 116.38353,464.32454 C 114.06425,463.60567 111.10982,462.37413 109.81811,461.58779 C 107.01382,459.88063 100.66667,458.93547 100.66667,460.22504 C 100.66667,460.72595 102.35417,462.13672 104.41667,463.36009 C 107.78475,465.35786 107.96298,465.65969 106.16667,466.32368 C 105.06667,466.73029 99.54147,467.64819 93.88844,468.36345 C 83.79463,469.6406 81.4565,470.97937 86.74081,472.45607 C 88.52424,472.95444 88.67489,473.16037 87.30968,473.23365 C 86.08833,473.29921 85.64972,473.84677 86.0283,474.83333 C 86.34488,475.65833 86.3995,476.33333 86.14968,476.33333 C 85.21571,476.33333 79.78367,464.53065 77.3966,457.31472 C 73.72941,446.22912 72.68936,436.4238 72.40165,410.2234 C 72.17301,389.40319 72.32105,386.71153 73.65452,387.44345 C 76.50384,389.00738 114.29349,392.97131 116.01305,391.88663 C 119.64185,389.59765 120.1597,392.4465 120.32318,415.59791 C 120.40925,427.78844 120.76864,439.57844 121.12182,441.79792 C 122.46586,450.24425 126.18458,458.75502 132.79097,468.50423 L 136.63377,474.17514 L 135.14139,478.40498 C 133.04065,484.35911 131.76727,500.60072 130.99989,531.22876 L 130.33855,557.62418 L 124.75261,561.04914 C 109.20112,570.58436 89.05022,582.29356 88.15999,582.31222 C 87.60631,582.32383 82.20631,579.03085 76.15999,574.99447 z M 112.66667,413.14843 C 112.66667,412.77173 112.20828,411.25787 111.64802,409.78428 C 110.74879,407.41912 110.83671,407.19033 112.39802,407.83264 C 117.81432,410.06083 117.78556,410.08989 117.46531,402.71268 L 117.16667,395.83333 L 112.16667,394.56532 C 109.41667,393.86791 104.46667,393.07292 101.16667,392.79867 C 97.86667,392.52442 90.2238,391.66289 84.18252,390.88416 C 78.14124,390.10543 73.15487,389.55042 73.1017,389.65081 C 73.04853,389.7512 73.26639,394.44634 73.58584,400.08447 C 73.92415,406.05526 73.77958,410.46417 73.23962,410.64349 C 72.72974,410.81282 72.62652,411.45934 73.01023,412.0802 C 73.44092,412.77708 76.09281,413.09901 79.94041,412.9215 C 83.3683,412.76336 86.94223,412.90382 87.88249,413.23365 C 90.25822,414.06701 112.66667,413.98996 112.66667,413.14843 z M 96.66667,406.94032 C 96.66667,406.72416 97.36504,406.27932 98.21861,405.95177 C 99.10853,405.61028 99.50993,405.77792 99.15959,406.34478 C 98.57233,407.29499 96.66667,407.75023 96.66667,406.94032 z M 85.66667,401.89235 C 85.66667,401.64981 86.11667,401.17325 86.66667,400.83333 C 87.21667,400.49341 87.66667,400.69185 87.66667,401.27431 C 87.66667,401.85677 87.21667,402.33333 86.66667,402.33333 C 86.11667,402.33333 85.66667,402.13489 85.66667,401.89235 z M 103.16667,401.33333 C 102.82675,400.78333 103.02519,400.33333 103.60765,400.33333 C 104.19011,400.33333 104.66667,400.78333 104.66667,401.33333 C 104.66667,401.88333 104.46823,402.33333 104.22569,402.33333 C 103.98315,402.33333 103.50659,401.88333 103.16667,401.33333 z M 110.43512,400.16488 C 111.01622,399.58378 112.08194,399.30509 112.80338,399.54557 C 113.55233,399.79522 113.09903,400.24851 111.74683,400.60212 C 110.08348,401.03709 109.69305,400.90695 110.43512,400.16488 z M 88.26634,398.73247 C 87.45099,396.6077 88.12064,395.90982 90.2067,396.71032 C 91.10116,397.05355 91.65494,397.86852 91.43733,398.52136 C 90.79916,400.43585 88.9668,400.55784 88.26634,398.73247 z M 106.41667,395.67105 C 107.10417,395.39364 108.22917,395.39364 108.91667,395.67105 C 109.60417,395.94846 109.04167,396.17543 107.66667,396.17543 C 106.29167,396.17543 105.72917,395.94846 106.41667,395.67105 z M 88.9375,393.72916 C 89.2698,393.39687 90.1323,393.36135 90.85417,393.65022 C 91.6519,393.96944 91.41495,394.2064 90.25,394.25438 C 89.19584,394.2978 88.60521,394.06145 88.9375,393.72916 z M 80.16667,566.95071 C 75.97705,564.27413 45.99479,547.51574 42.41667,545.85059 C 40.35417,544.89076 38.66667,543.69635 38.66667,543.19634 C 38.66667,542.69632 39.74402,542.99313 41.06078,543.85591 C 42.57876,544.85052 44.40478,545.18618 46.05054,544.77312 C 48.34936,544.19615 48.61191,543.68825 48.3464,540.33177 C 48.12508,537.53399 48.38954,536.67349 49.35664,537.0446 C 50.10176,537.33053 50.66667,536.85434 50.66667,535.94032 C 50.66667,535.05647 49.99167,534.33333 49.16667,534.33333 C 48.34167,534.33333 47.66667,533.88333 47.66667,533.33333 C 47.66667,531.7186 49.5137,532.18036 51.66667,534.33333 C 52.76667,535.43333 53.66667,537.48865 53.66667,538.90072 C 53.66667,540.95917 54.03966,541.34972 55.54824,540.87092 C 56.76419,540.48499 57.65006,540.84765 58.05237,541.89607 C 58.47122,542.98756 58.02998,543.68707 56.70392,544.03384 C 54.21755,544.68404 52.96117,548.27161 54.80966,549.44286 C 57.8354,551.36006 59.42126,550.365 60.56235,545.83333 C 61.97899,540.20737 62.71324,540.02411 62.05802,545.46004 C 61.57717,549.44931 61.64643,549.57035 64.1375,549.09415 C 65.5548,548.82322 66.99819,549.06073 67.34505,549.62195 C 67.70619,550.2063 67.48233,550.33743 66.82118,549.92882 C 66.05263,549.45383 65.66928,550.15437 65.67447,552.02431 C 65.68025,554.10463 66.39185,555.16295 68.41759,556.10398 C 70.05178,556.86312 71.28232,556.98637 71.4744,556.41016 C 71.65121,555.8797 72.44691,555.69551 73.24262,556.00085 C 74.28901,556.40239 74.52696,556.04094 74.1025,554.69467 C 73.56929,553.00343 73.61636,552.98946 74.61761,554.5418 C 75.22369,555.48145 76.38266,555.99581 77.19312,555.68481 C 78.26206,555.27462 78.66667,555.84485 78.66667,557.76152 C 78.66667,560.14647 78.45958,560.29287 76.5395,559.26527 C 74.88031,558.3773 74.22367,558.42456 73.55481,559.48008 C 72.18435,561.64281 72.38248,561.84751 78.16667,564.24493 C 81.19167,565.49872 83.66667,566.93152 83.66667,567.42894 C 83.66667,568.64073 82.57954,568.49219 80.16667,566.95071 z M 102.66667,562.50771 C 102.66667,561.41568 105.04693,560.33333 107.44846,560.33333 C 109.52486,560.33333 107.93284,561.87706 104.91667,562.78832 C 103.67331,563.16397 102.66667,563.03843 102.66667,562.50771 z M 110.58443,558.96502 C 112.30372,556.85387 115.66667,554.94652 115.66667,556.08254 C 115.66667,556.53331 114.20417,557.75797 112.41667,558.80401 C 109.54165,560.48646 109.33025,560.50504 110.58443,558.96502 z M 91.38073,532.03127 C 90.69848,504.01468 91.13065,500.50329 95.66667,497.20839 C 98.56489,495.10316 125.27692,488.61162 126.4073,489.73782 C 126.82495,490.15393 127.19946,495.74564 127.23953,502.16386 L 127.31239,513.83333 L 126.95637,503.03922 C 126.70018,495.27203 126.22934,492.10274 125.27734,491.73743 C 123.73565,491.14582 101.68098,496.8249 96.94295,499.03353 C 92.54408,501.08407 92.26533,503.28728 93.06122,529.71401 C 93.42762,541.87964 93.34077,553.18333 92.86823,554.83333 C 92.30108,556.81368 91.7955,549.06362 91.38073,532.03127 z M 108.34073,556.59964 C 108.08545,556.17817 108.50436,555.25309 109.27163,554.5439 C 110.41746,553.48482 110.66667,553.51894 110.66667,554.73489 C 110.66667,556.43352 109.03327,557.74306 108.34073,556.59964 z M 75.66667,552.89235 C 75.66667,552.64981 76.11667,552.17325 76.66667,551.83333 C 77.21667,551.49341 77.66667,551.69185 77.66667,552.27431 C 77.66667,552.85677 77.21667,553.33333 76.66667,553.33333 C 76.11667,553.33333 75.66667,553.13489 75.66667,552.89235 z M 73.66667,550.39235 C 73.66667,549.80989 74.11667,549.33333 74.66667,549.33333 C 75.21667,549.33333 75.66667,549.53177 75.66667,549.77431 C 75.66667,550.01685 75.21667,550.49341 74.66667,550.83333 C 74.11667,551.17325 73.66667,550.97481 73.66667,550.39235 z M 95.66667,548.05584 C 95.66667,545.30552 96.01947,544.53148 97.08642,544.94091 C 98.21894,545.3755 98.47183,544.36503 98.33642,539.94621 C 98.19028,535.17724 98.43397,534.36683 100.08834,534.12002 C 101.14526,533.96234 102.2075,533.23412 102.44887,532.50175 C 102.74886,531.5915 102.14081,531.27508 100.5272,531.50175 L 98.16667,531.83333 L 97.9173,517.33333 C 97.78015,509.35833 98.02678,502.27881 98.46536,501.60106 C 99.14344,500.55322 120.22413,494.35689 123.16667,494.34051 C 124.37685,494.33378 124.68772,506.54993 123.97533,526.11806 C 123.5442,537.96034 123.22437,540.21114 122.10478,539.28197 C 121.362,538.66552 120.28972,538.44826 119.72193,538.79918 C 119.11773,539.1726 118.92426,538.82563 119.25544,537.96259 C 119.56667,537.15155 118.88651,535.55317 117.74399,534.41065 C 116.60146,533.26812 115.66667,531.45989 115.66667,530.39235 C 115.66667,527.63851 113.8443,526.86261 111.77492,528.73537 C 110.80377,529.61425 109.25712,530.33333 108.33793,530.33333 C 107.39083,530.33333 106.66667,531.11886 106.66667,532.14624 C 106.66667,533.14334 105.31667,535.25253 103.66667,536.83333 C 100.24889,540.10777 100.01818,541.41397 102.25472,544.82736 C 103.79328,547.1755 103.75432,547.27163 101.00472,547.91212 C 99.44379,548.27572 97.60417,549.28025 96.91667,550.1444 C 95.85816,551.47489 95.66667,551.15494 95.66667,548.05584 z M 40.08973,540.84971 L 36.01279,538.68271 L 35.76704,531.90408 C 35.59939,527.27959 35.86218,525.33613 36.59398,525.78841 C 37.18396,526.15303 37.66667,527.52325 37.66667,528.83333 C 37.66667,531.29316 39.78298,533.48441 40.39254,531.65572 C 40.58169,531.08828 41.84136,530.83523 43.19182,531.09339 C 45.21337,531.47983 45.54084,531.98649 45.04526,533.96103 C 44.6966,535.35023 45.01625,537.06573 45.805,538.03827 C 46.59641,539.01411 46.67168,539.42036 45.98473,539.00833 C 45.23246,538.55713 44.68716,539.15685 44.48473,540.65807 L 44.16667,543.01672 L 40.08973,540.84971 z M 108.66667,540.89235 C 108.66667,540.64981 109.11667,540.17325 109.66667,539.83333 C 110.21667,539.49341 110.66667,539.69185 110.66667,540.27431 C 110.66667,540.85677 110.21667,541.33333 109.66667,541.33333 C 109.11667,541.33333 108.66667,541.13489 108.66667,540.89235 z M 108.45919,535.78558 C 107.5398,534.32729 108.75468,532.73146 111.41667,531.90072 C 113.8262,531.14877 114.22417,531.92327 112.66667,534.33333 C 112.02042,535.33333 111.69219,535.41666 111.68198,534.58333 C 111.65872,532.68463 109.86149,533.09025 109.46653,535.08333 C 109.2643,536.10388 108.84441,536.3966 108.45919,535.78558 z M 55.66667,527.74563 C 51.54167,525.95743 47.37917,524.71345 46.41667,524.98123 C 45.45417,525.24901 44.66667,524.96122 44.66667,524.3417 C 44.66667,523.72218 45.02566,523.43716 45.46442,523.70833 C 45.90318,523.9795 46.88484,523.81653 47.6459,523.34617 C 49.2293,522.36757 64.94194,529.58328 63.58334,530.66512 C 63.35417,530.8476 59.79167,529.53383 55.66667,527.74563 z M 34.96673,518.04185 C 34.95194,514.38878 35.11617,513.38546 35.36574,515.60427 C 35.6552,518.17768 36.16729,519.14881 36.97828,518.66231 C 37.71006,518.22333 37.65331,518.58268 36.83058,519.59757 C 36.09573,520.50405 35.76557,521.68434 36.09689,522.22043 C 36.42821,522.75652 36.31513,523.43256 35.84559,523.72275 C 35.37604,524.01295 34.98056,521.45654 34.96673,518.04185 z M 41.41574,522.73633 C 41.07633,522.18716 41.21205,521.08432 41.71734,520.28558 C 42.22263,519.48684 42.72155,516.58333 42.82606,513.83333 L 43.01608,508.83333 L 43.39887,513.08333 C 43.82342,517.7969 45.59157,518.90226 45.79831,514.58333 C 45.91464,512.15327 46.00764,512.24053 46.5977,515.33333 C 47.49605,520.04203 46.83835,521.94647 45.11982,519.61272 C 43.75047,517.75316 43.63486,517.86794 42.42898,522.28408 C 42.20063,523.12034 41.77146,523.3119 41.41574,522.73633 z M 67.33334,520.66666 C 66.96667,520.3 66.68164,518.8375 66.69994,517.41666 L 66.73321,514.83333 L 68.69994,517.19411 C 69.78164,518.49255 70.66667,519.95505 70.66667,520.44411 C 70.66667,521.48189 68.30616,521.63949 67.33334,520.66666 z M 50.01011,516.87542 C 49.12324,515.91106 49.29006,515.24405 50.72547,514.01501 C 51.81083,513.0857 52.84684,512.81584 53.19105,513.37278 C 53.51756,513.90108 53.33944,514.33333 52.79524,514.33333 C 52.25103,514.33333 51.66197,515.18826 51.48622,516.23318 C 51.23378,517.73405 50.92378,517.86892 50.01011,516.87542 z M 64.66667,512.57388 C 64.66667,512.15618 65.57683,511.24602 66.68924,510.55131 C 68.56523,509.37973 68.62027,509.43477 67.44869,511.31076 C 66.19021,513.32591 64.66667,514.01764 64.66667,512.57388 z M 54.74562,510.91666 C 54.7022,509.8625 54.93854,509.27187 55.27084,509.60416 C 55.60313,509.93646 55.63866,510.79896 55.34978,511.52083 C 55.03056,512.31856 54.7936,512.08161 54.74562,510.91666 z M 81.30504,510.83333 C 80.98846,510.00833 81.16532,509.33333 81.69806,509.33333 C 82.23079,509.33333 82.66667,510.00833 82.66667,510.83333 C 82.66667,511.65833 82.48982,512.33333 82.27366,512.33333 C 82.0575,512.33333 81.62163,511.65833 81.30504,510.83333 z M 34.00948,502.83333 C 34.00585,498.43333 34.17868,496.50894 34.39356,498.5569 C 34.60844,500.60486 34.61141,504.20486 34.40017,506.5569 C 34.18892,508.90894 34.01311,507.23333 34.00948,502.83333 z M 50.66667,504.5 C 50.66667,502.20833 51.08838,500.33333 51.6038,500.33333 C 52.12291,500.33333 52.28281,502.00606 51.96226,504.08333 C 51.16099,509.27586 50.66667,509.43483 50.66667,504.5 z M 39.20938,500.40243 C 38.89294,499.89043 39.09139,499.18887 39.65036,498.84341 C 40.20933,498.49795 40.66667,498.91685 40.66667,499.77431 C 40.66667,501.53084 40.06662,501.78947 39.20938,500.40243 z M 46.24862,497.80383 C 45.90759,496.44505 45.16058,495.33333 44.5886,495.33333 C 44.01662,495.33333 43.8146,494.90298 44.13968,494.377 C 44.46475,493.85102 45.34579,493.6567 46.09754,493.94518 C 46.8493,494.23365 47.76144,493.989 48.12454,493.4015 C 49.18933,491.67863 50.94066,492.17695 50.23979,494.00338 C 49.88732,494.92191 50.01543,495.93441 50.52449,496.25338 C 51.03355,496.57235 50.41924,497.60755 49.15936,498.55383 C 46.93629,500.22355 46.85038,500.20141 46.24862,497.80383 z M 36.29021,496.79467 C 35.32523,494.27998 35.6099,493.63112 36.78874,495.65833 C 37.37243,496.66208 37.63934,497.69399 37.38187,497.95146 C 37.1244,498.20893 36.63316,497.68837 36.29021,496.79467 z M 61.66667,496.39235 C 61.66667,495.80989 62.11667,495.33333 62.66667,495.33333 C 63.21667,495.33333 63.66667,495.53177 63.66667,495.77431 C 63.66667,496.01685 63.21667,496.49341 62.66667,496.83333 C 62.11667,497.17325 61.66667,496.97481 61.66667,496.39235 z M 80.82456,490.33333 C 80.82456,488.95833 81.05154,488.39583 81.32895,489.08333 C 81.60636,489.77083 81.60636,490.89583 81.32895,491.58333 C 81.05154,492.27083 80.82456,491.70833 80.82456,490.33333 z M 33.02162,481.83333 C 33.02467,476.88333 33.19627,474.98441 33.40294,477.6135 C 33.60962,480.2426 33.60712,484.2926 33.3974,486.6135 C 33.18768,488.93441 33.01858,486.78333 33.02162,481.83333 z M 70.26968,489.5 C 69.98641,489.04166 70.40985,488.66666 71.21066,488.66666 C 72.01147,488.66666 72.66667,489.04166 72.66667,489.5 C 72.66667,489.95833 72.24323,490.33333 71.72569,490.33333 C 71.20815,490.33333 70.55294,489.95833 70.26968,489.5 z M 51.72632,484.60893 C 50.23101,479.22438 50.35566,477.33983 52.05872,479.58333 C 52.78936,480.54583 53.90005,481.33333 54.52691,481.33333 C 55.15378,481.33333 55.61447,482.34583 55.55067,483.58333 C 55.46338,485.2765 55.32149,485.40024 54.97734,484.08333 C 54.72582,483.12083 54.10302,482.33333 53.59335,482.33333 C 52.22305,482.33333 52.4669,486.10007 53.86742,486.56691 C 54.75768,486.86367 54.77167,487.1504 53.92149,487.67584 C 53.18562,488.13063 52.39918,487.03188 51.72632,484.60893 z M 44.66667,479.33333 C 44.66667,478.78333 44.86511,478.33333 45.10765,478.33333 C 45.35019,478.33333 45.82675,478.78333 46.16667,479.33333 C 46.50659,479.88333 46.30815,480.33333 45.72569,480.33333 C 45.14323,480.33333 44.66667,479.88333 44.66667,479.33333 z M 91.9375,471.72916 C 92.2698,471.39687 93.1323,471.36135 93.85417,471.65022 C 94.6519,471.96944 94.41495,472.2064 93.25,472.25438 C 92.19584,472.2978 91.60521,472.06145 91.9375,471.72916 z M 97.41667,470.67105 C 98.10417,470.39364 99.22917,470.39364 99.91667,470.67105 C 100.60417,470.94846 100.04167,471.17543 98.66667,471.17543 C 97.29167,471.17543 96.72917,470.94846 97.41667,470.67105 z M 63.66667,469.39235 C 63.66667,468.80989 64.11667,468.33333 64.66667,468.33333 C 65.21667,468.33333 65.66667,468.53177 65.66667,468.77431 C 65.66667,469.01685 65.21667,469.49341 64.66667,469.83333 C 64.11667,470.17325 63.66667,469.97481 63.66667,469.39235 z M 102.9375,469.72916 C 103.2698,469.39687 104.1323,469.36135 104.85417,469.65022 C 105.6519,469.96944 105.41495,470.2064 104.25,470.25438 C 103.19584,470.2978 102.60521,470.06145 102.9375,469.72916 z M 108.16667,469.33333 C 109.26667,468.86064 110.84167,468.4739 111.66667,468.4739 C 112.61215,468.4739 112.42731,468.79162 111.16667,469.33333 C 110.06667,469.80602 108.49167,470.19276 107.66667,470.19276 C 106.72119,470.19276 106.90603,469.87504 108.16667,469.33333 z M 32.04074,454.83333 C 32.03848,448.78333 32.20134,446.1794 32.40265,449.04682 C 32.60395,451.91423 32.6058,456.86423 32.40675,460.04682 C 32.2077,463.2294 32.04299,460.88333 32.04074,454.83333 z M 30.93903,437.33333 C 30.93903,434.85833 31.13405,433.84583 31.3724,435.08333 C 31.61076,436.32083 31.61076,438.34583 31.3724,439.58333 C 31.13405,440.82083 30.93903,439.80833 30.93903,437.33333 z M 30.04484,419.33333 C 30.04484,413.00833 30.20721,410.42083 30.40566,413.58333 C 30.60411,416.74583 30.60411,421.92083 30.40566,425.08333 C 30.20721,428.24583 30.04484,425.65833 30.04484,419.33333 z M 30.83663,404.83333 C 30.82047,403.73333 31.19398,401.93333 31.66667,400.83333 C 32.76168,398.28511 32.76168,400.91416 31.66667,404.33333 C 31.02304,406.34306 30.86027,406.44111 30.83663,404.83333 z M 34.49141,395.33333 C 36.71703,391.46937 43.50994,386.75845 48.16667,385.84946 C 49.9133,385.50852 49.03776,386.1191 46.07103,387.3109 C 41.3445,389.20966 37.99135,391.86789 34.05922,396.83333 C 33.18814,397.93333 33.38262,397.25833 34.49141,395.33333 z M 55.88315,384.59966 C 58.47721,384.39441 62.97721,384.39228 65.88315,384.59493 C 68.78908,384.79757 66.66667,384.9655 61.16667,384.9681 C 55.66667,384.9707 53.28908,384.80491 55.88315,384.59966 z"
           style="fill:#2a2aff;fill-opacity:1" />
      </g>
    </g>
  </g>
</svg>
